<svg xmlns="http://www.w3.org/2000/svg" xmlns:xlink="http://www.w3.org/1999/xlink" width="2000" zoomAndPan="magnify" viewBox="0 0 1500 599.999999" height="800" preserveAspectRatio="xMidYMid meet" version="1.0"><defs><g/></defs><g fill="#0e0e0e" fill-opacity="1"><g transform="translate(512.948596, 378.000004)"><g><path d="M 41.921875 -70 L 72.765625 -70 L 72.765625 -93.625 C 72.765625 -93.769531 73.265625 -105.753906 74.265625 -129.578125 L 73.40625 -129.578125 C 68.445312 -118.378906 64.125 -109.160156 60.4375 -101.921875 Z M 127.03125 -70 L 127.03125 -40.421875 L 108.953125 -40.421875 L 108.953125 0 L 72.765625 0 L 72.765625 -40.421875 L 4.890625 -40.421875 L 4.890625 -67.234375 L 61.28125 -162.140625 L 108.953125 -162.140625 L 108.953125 -70 Z M 127.03125 -70 "/></g></g><g transform="translate(645.512521, 378.000004)"><g><path d="M 38.296875 -76.609375 C 31.628906 -76.609375 26.132812 -78.910156 21.8125 -83.515625 C 17.488281 -88.128906 15.328125 -93.835938 15.328125 -100.640625 C 15.328125 -107.453125 17.488281 -113.160156 21.8125 -117.765625 C 26.132812 -122.378906 31.628906 -124.6875 38.296875 -124.6875 C 44.828125 -124.6875 50.328125 -122.34375 54.796875 -117.65625 C 59.265625 -112.976562 61.5 -107.304688 61.5 -100.640625 C 61.5 -93.972656 59.265625 -88.300781 54.796875 -83.625 C 50.328125 -78.945312 44.828125 -76.609375 38.296875 -76.609375 Z M 38.296875 2.984375 C 31.628906 2.984375 26.132812 0.675781 21.8125 -3.9375 C 17.488281 -8.550781 15.328125 -14.257812 15.328125 -21.0625 C 15.328125 -27.726562 17.488281 -33.398438 21.8125 -38.078125 C 26.132812 -42.765625 31.628906 -45.109375 38.296875 -45.109375 C 44.828125 -45.109375 50.328125 -42.765625 54.796875 -38.078125 C 59.265625 -33.398438 61.5 -27.726562 61.5 -21.0625 C 61.5 -14.394531 59.265625 -8.71875 54.796875 -4.03125 C 50.328125 0.644531 44.828125 2.984375 38.296875 2.984375 Z M 38.296875 2.984375 "/></g></g><g transform="translate(721.901686, 378.000004)"><g><path d="M 65.96875 2.984375 C 49.9375 2.984375 36.671875 -1.019531 26.171875 -9.03125 C 15.671875 -17.050781 10.421875 -27.445312 10.421875 -40.21875 C 10.421875 -58.09375 19.289062 -71.78125 37.03125 -81.28125 L 37.03125 -82.34375 C 22.976562 -92.84375 15.953125 -105.820312 15.953125 -121.28125 C 15.953125 -134.613281 20.703125 -145.253906 30.203125 -153.203125 C 39.710938 -161.148438 52.054688 -165.125 67.234375 -165.125 C 81.847656 -165.125 93.625 -161.1875 102.5625 -153.3125 C 111.5 -145.4375 115.96875 -134.90625 115.96875 -121.71875 C 115.96875 -114.332031 114.050781 -107.519531 110.21875 -101.28125 C 106.394531 -95.039062 101.503906 -89.863281 95.546875 -85.75 L 95.546875 -84.6875 C 113.703125 -75.1875 122.78125 -60.644531 122.78125 -41.0625 C 122.78125 -28.300781 117.53125 -17.769531 107.03125 -9.46875 C 96.53125 -1.164062 82.84375 2.984375 65.96875 2.984375 Z M 75.75 -95.109375 C 81.5625 -102.066406 84.46875 -110.082031 84.46875 -119.15625 C 84.46875 -125.113281 82.835938 -129.796875 79.578125 -133.203125 C 76.316406 -136.609375 71.847656 -138.3125 66.171875 -138.3125 C 61.492188 -138.3125 57.59375 -136.851562 54.46875 -133.9375 C 51.351562 -131.03125 49.796875 -126.8125 49.796875 -121.28125 C 49.796875 -115.320312 51.957031 -110.320312 56.28125 -106.28125 C 60.601562 -102.238281 67.09375 -98.515625 75.75 -95.109375 Z M 66.8125 -24.046875 C 72.625 -24.046875 77.410156 -25.601562 81.171875 -28.71875 C 84.929688 -31.84375 86.8125 -36.457031 86.8125 -42.5625 C 86.8125 -49.082031 84.363281 -54.222656 79.46875 -57.984375 C 74.582031 -61.742188 66.25 -66.175781 54.46875 -71.28125 C 47.238281 -64.332031 43.625 -55.535156 43.625 -44.890625 C 43.625 -38.515625 45.859375 -33.445312 50.328125 -29.6875 C 54.796875 -25.925781 60.289062 -24.046875 66.8125 -24.046875 Z M 66.8125 -24.046875 "/></g></g><g transform="translate(854.465612, 378.000004)"><g><path d="M 17.015625 0 L 17.015625 -31.28125 L 51.5 -31.28125 L 51.5 -123.625 L 21.484375 -123.625 L 21.484375 -147.453125 C 37.234375 -150.296875 50.640625 -155.191406 61.703125 -162.140625 L 90.21875 -162.140625 L 90.21875 -31.28125 L 119.375 -31.28125 L 119.375 0 Z M 17.015625 0 "/></g></g></g></svg>