<svg xmlns="http://www.w3.org/2000/svg" xmlns:xlink="http://www.w3.org/1999/xlink" width="2000" zoomAndPan="magnify" viewBox="0 0 1500 599.999999" height="800" preserveAspectRatio="xMidYMid meet" version="1.0"><defs><g/></defs><g fill="#92e5bd" fill-opacity="1"><g transform="translate(526.565783, 378.000004)"><g><path d="M 9.6875 -29.46875 L 9.6875 -55 L 76.8125 -158.53125 L 98.40625 -158.53125 L 98.40625 -123.734375 L 85.75 -123.734375 L 42.234375 -56.59375 L 42.234375 -55.53125 L 137.359375 -55.53125 L 137.359375 -29.46875 Z M 86.28125 0 L 86.28125 -37.234375 L 86.8125 -48.734375 L 86.8125 -158.53125 L 117.453125 -158.53125 L 117.453125 0 Z M 86.28125 0 "/></g></g><g transform="translate(672.960615, 378.000004)"><g><path d="M 34.265625 2.015625 C 29.078125 2.015625 24.710938 0.257812 21.171875 -3.25 C 17.628906 -6.757812 15.859375 -11.101562 15.859375 -16.28125 C 15.859375 -21.382812 17.628906 -25.691406 21.171875 -29.203125 C 24.710938 -32.710938 29.078125 -34.46875 34.265625 -34.46875 C 39.367188 -34.46875 43.691406 -32.710938 47.234375 -29.203125 C 50.785156 -25.691406 52.5625 -21.382812 52.5625 -16.28125 C 52.5625 -11.101562 50.785156 -6.757812 47.234375 -3.25 C 43.691406 0.257812 39.367188 2.015625 34.265625 2.015625 Z M 34.265625 -75.96875 C 29.078125 -75.96875 24.710938 -77.722656 21.171875 -81.234375 C 17.628906 -84.742188 15.859375 -89.085938 15.859375 -94.265625 C 15.859375 -99.367188 17.628906 -103.675781 21.171875 -107.1875 C 24.710938 -110.695312 29.078125 -112.453125 34.265625 -112.453125 C 39.367188 -112.453125 43.691406 -110.695312 47.234375 -107.1875 C 50.785156 -103.675781 52.5625 -99.367188 52.5625 -94.265625 C 52.5625 -89.085938 50.785156 -84.742188 47.234375 -81.234375 C 43.691406 -77.722656 39.367188 -75.96875 34.265625 -75.96875 Z M 34.265625 -75.96875 "/></g></g><g transform="translate(741.370409, 378.000004)"><g><path d="M 70 2.234375 C 58.15625 2.234375 47.660156 0.300781 38.515625 -3.5625 C 29.367188 -7.425781 22.203125 -12.742188 17.015625 -19.515625 C 11.835938 -26.296875 9.25 -33.976562 9.25 -42.5625 C 9.25 -49.289062 10.773438 -55.441406 13.828125 -61.015625 C 16.878906 -66.585938 21.046875 -71.21875 26.328125 -74.90625 C 31.617188 -78.59375 37.597656 -80.96875 44.265625 -82.03125 L 44.265625 -82.765625 C 35.535156 -84.472656 28.457031 -88.570312 23.03125 -95.0625 C 17.601562 -101.550781 14.890625 -109.226562 14.890625 -118.09375 C 14.890625 -126.320312 17.265625 -133.644531 22.015625 -140.0625 C 26.773438 -146.476562 33.285156 -151.53125 41.546875 -155.21875 C 49.804688 -158.914062 59.289062 -160.765625 70 -160.765625 C 80.644531 -160.765625 90.113281 -158.914062 98.40625 -155.21875 C 106.707031 -151.53125 113.234375 -146.476562 117.984375 -140.0625 C 122.734375 -133.644531 125.109375 -126.320312 125.109375 -118.09375 C 125.109375 -109.226562 122.378906 -101.550781 116.921875 -95.0625 C 111.460938 -88.570312 104.40625 -84.472656 95.75 -82.765625 L 95.75 -82.03125 C 102.34375 -80.96875 108.300781 -78.59375 113.625 -74.90625 C 118.945312 -71.21875 123.148438 -66.585938 126.234375 -61.015625 C 129.316406 -55.441406 130.859375 -49.289062 130.859375 -42.5625 C 130.859375 -33.976562 128.25 -26.296875 123.03125 -19.515625 C 117.820312 -12.742188 110.640625 -7.425781 101.484375 -3.5625 C 92.335938 0.300781 81.84375 2.234375 70 2.234375 Z M 70 -21.8125 C 75.394531 -21.8125 80.128906 -22.785156 84.203125 -24.734375 C 88.285156 -26.679688 91.460938 -29.410156 93.734375 -32.921875 C 96.003906 -36.429688 97.140625 -40.492188 97.140625 -45.109375 C 97.140625 -49.785156 95.96875 -53.914062 93.625 -57.5 C 91.28125 -61.082031 88.066406 -63.921875 83.984375 -66.015625 C 79.910156 -68.109375 75.25 -69.15625 70 -69.15625 C 64.757812 -69.15625 60.082031 -68.125 55.96875 -66.0625 C 51.851562 -64.007812 48.625 -61.171875 46.28125 -57.546875 C 43.9375 -53.929688 42.765625 -49.785156 42.765625 -45.109375 C 42.765625 -40.492188 43.898438 -36.429688 46.171875 -32.921875 C 48.441406 -29.410156 51.613281 -26.679688 55.6875 -24.734375 C 59.769531 -22.785156 64.539062 -21.8125 70 -21.8125 Z M 70 -93.09375 C 74.539062 -93.09375 78.566406 -93.992188 82.078125 -95.796875 C 85.585938 -97.609375 88.351562 -100.160156 90.375 -103.453125 C 92.394531 -106.753906 93.40625 -110.5 93.40625 -114.6875 C 93.40625 -119.019531 92.410156 -122.765625 90.421875 -125.921875 C 88.441406 -129.078125 85.695312 -131.554688 82.1875 -133.359375 C 78.675781 -135.171875 74.613281 -136.078125 70 -136.078125 C 65.320312 -136.078125 61.226562 -135.171875 57.71875 -133.359375 C 54.207031 -131.554688 51.472656 -129.078125 49.515625 -125.921875 C 47.566406 -122.765625 46.59375 -119.019531 46.59375 -114.6875 C 46.59375 -110.5 47.566406 -106.773438 49.515625 -103.515625 C 51.472656 -100.253906 54.222656 -97.703125 57.765625 -95.859375 C 61.316406 -94.015625 65.394531 -93.09375 70 -93.09375 Z M 70 -93.09375 "/></g></g></g><g fill="#92e5bd" fill-opacity="1"><g transform="translate(881.488117, 378.000004)"><g><path d="M 78.203125 -158.53125 L 78.203125 0 L 45.96875 0 L 45.96875 -129.578125 L 45.109375 -129.578125 L 8.625 -104.375 L 8.625 -133.84375 L 44.578125 -158.53125 Z M 78.203125 -158.53125 "/></g></g></g></svg>