<svg xmlns="http://www.w3.org/2000/svg" xmlns:xlink="http://www.w3.org/1999/xlink" width="2000" zoomAndPan="magnify" viewBox="0 0 1500 1799.999925" height="2400" preserveAspectRatio="xMidYMid meet" version="1.0"><defs><g/><clipPath id="bf22d36156"><path d="M 379.5 1438.8125 L 477.832031 1438.8125 L 477.832031 1537.140625 L 379.5 1537.140625 Z M 379.5 1438.8125 " clip-rule="nonzero"/></clipPath><clipPath id="c98e55c7ed"><path d="M 428.667969 1438.8125 C 401.511719 1438.8125 379.5 1460.824219 379.5 1487.976562 C 379.5 1515.128906 401.511719 1537.140625 428.667969 1537.140625 C 455.820312 1537.140625 477.832031 1515.128906 477.832031 1487.976562 C 477.832031 1460.824219 455.820312 1438.8125 428.667969 1438.8125 Z M 428.667969 1438.8125 " clip-rule="nonzero"/></clipPath><clipPath id="f6bc10ae53"><path d="M 0.5 0.8125 L 98.832031 0.8125 L 98.832031 99.140625 L 0.5 99.140625 Z M 0.5 0.8125 " clip-rule="nonzero"/></clipPath><clipPath id="824a90b60a"><path d="M 49.667969 0.8125 C 22.511719 0.8125 0.5 22.824219 0.5 49.976562 C 0.5 77.128906 22.511719 99.140625 49.667969 99.140625 C 76.820312 99.140625 98.832031 77.128906 98.832031 49.976562 C 98.832031 22.824219 76.820312 0.8125 49.667969 0.8125 Z M 49.667969 0.8125 " clip-rule="nonzero"/></clipPath><clipPath id="90e6f201ae"><rect x="0" width="99" y="0" height="100"/></clipPath><clipPath id="620bab8c69"><path d="M 1007.222656 1438.8125 L 1105.554688 1438.8125 L 1105.554688 1537.140625 L 1007.222656 1537.140625 Z M 1007.222656 1438.8125 " clip-rule="nonzero"/></clipPath><clipPath id="2dab041bb4"><path d="M 1056.390625 1438.8125 C 1029.234375 1438.8125 1007.222656 1460.824219 1007.222656 1487.976562 C 1007.222656 1515.128906 1029.234375 1537.140625 1056.390625 1537.140625 C 1083.542969 1537.140625 1105.554688 1515.128906 1105.554688 1487.976562 C 1105.554688 1460.824219 1083.542969 1438.8125 1056.390625 1438.8125 Z M 1056.390625 1438.8125 " clip-rule="nonzero"/></clipPath><clipPath id="da62f9a9aa"><path d="M 0.222656 0.8125 L 98.554688 0.8125 L 98.554688 99.140625 L 0.222656 99.140625 Z M 0.222656 0.8125 " clip-rule="nonzero"/></clipPath><clipPath id="a866ef3866"><path d="M 49.390625 0.8125 C 22.234375 0.8125 0.222656 22.824219 0.222656 49.976562 C 0.222656 77.128906 22.234375 99.140625 49.390625 99.140625 C 76.542969 99.140625 98.554688 77.128906 98.554688 49.976562 C 98.554688 22.824219 76.542969 0.8125 49.390625 0.8125 Z M 49.390625 0.8125 " clip-rule="nonzero"/></clipPath><clipPath id="34e24aa282"><rect x="0" width="99" y="0" height="100"/></clipPath><clipPath id="24edd14333"><path d="M 797.894531 1438.8125 L 896.222656 1438.8125 L 896.222656 1537.140625 L 797.894531 1537.140625 Z M 797.894531 1438.8125 " clip-rule="nonzero"/></clipPath><clipPath id="4b248685c1"><path d="M 847.058594 1438.8125 C 819.90625 1438.8125 797.894531 1460.824219 797.894531 1487.976562 C 797.894531 1515.128906 819.90625 1537.140625 847.058594 1537.140625 C 874.210938 1537.140625 896.222656 1515.128906 896.222656 1487.976562 C 896.222656 1460.824219 874.210938 1438.8125 847.058594 1438.8125 Z M 847.058594 1438.8125 " clip-rule="nonzero"/></clipPath><clipPath id="380a31b29b"><path d="M 0.894531 0.8125 L 99.222656 0.8125 L 99.222656 99.140625 L 0.894531 99.140625 Z M 0.894531 0.8125 " clip-rule="nonzero"/></clipPath><clipPath id="8b7ccd0531"><path d="M 50.058594 0.8125 C 22.90625 0.8125 0.894531 22.824219 0.894531 49.976562 C 0.894531 77.128906 22.90625 99.140625 50.058594 99.140625 C 77.210938 99.140625 99.222656 77.128906 99.222656 49.976562 C 99.222656 22.824219 77.210938 0.8125 50.058594 0.8125 Z M 50.058594 0.8125 " clip-rule="nonzero"/></clipPath><clipPath id="8928e635f8"><rect x="0" width="100" y="0" height="100"/></clipPath><clipPath id="c533c9de5e"><path d="M 588.5625 1438.8125 L 686.894531 1438.8125 L 686.894531 1537.140625 L 588.5625 1537.140625 Z M 588.5625 1438.8125 " clip-rule="nonzero"/></clipPath><clipPath id="27a4fdcee6"><path d="M 637.730469 1438.8125 C 610.574219 1438.8125 588.5625 1460.824219 588.5625 1487.976562 C 588.5625 1515.128906 610.574219 1537.140625 637.730469 1537.140625 C 664.882812 1537.140625 686.894531 1515.128906 686.894531 1487.976562 C 686.894531 1460.824219 664.882812 1438.8125 637.730469 1438.8125 Z M 637.730469 1438.8125 " clip-rule="nonzero"/></clipPath><clipPath id="0e827e89fc"><path d="M 0.5625 0.8125 L 98.894531 0.8125 L 98.894531 99.140625 L 0.5625 99.140625 Z M 0.5625 0.8125 " clip-rule="nonzero"/></clipPath><clipPath id="14c22df505"><path d="M 49.730469 0.8125 C 22.574219 0.8125 0.5625 22.824219 0.5625 49.976562 C 0.5625 77.128906 22.574219 99.140625 49.730469 99.140625 C 76.882812 99.140625 98.894531 77.128906 98.894531 49.976562 C 98.894531 22.824219 76.882812 0.8125 49.730469 0.8125 Z M 49.730469 0.8125 " clip-rule="nonzero"/></clipPath><clipPath id="ea245f5880"><rect x="0" width="99" y="0" height="100"/></clipPath></defs><g fill="#92e5bd" fill-opacity="1"><g transform="translate(319.718589, 1302.36375)"><g><path d="M 843.625 -443.90625 C 843.625 -438.5 842.273438 -434.203125 839.578125 -431.015625 C 836.878906 -427.828125 833.078125 -426.234375 828.171875 -426.234375 C 823.265625 -426.234375 818.601562 -427.335938 814.1875 -429.546875 C 809.769531 -431.753906 804.863281 -432.859375 799.46875 -432.859375 C 798.476562 -431.390625 797.613281 -429.914062 796.875 -428.4375 C 796.144531 -426.96875 795.78125 -425.25 795.78125 -423.28125 C 795.78125 -419.851562 797.128906 -418.015625 799.828125 -417.765625 C 802.523438 -417.523438 805.347656 -417.28125 808.296875 -417.03125 C 811.242188 -416.78125 814.066406 -415.921875 816.765625 -414.453125 C 819.460938 -412.984375 820.8125 -409.546875 820.8125 -404.140625 C 820.8125 -398.742188 820.070312 -390.398438 818.59375 -379.109375 C 817.125 -367.828125 815.039062 -356.050781 812.34375 -343.78125 C 809.644531 -331.507812 806.695312 -320.222656 803.5 -309.921875 C 800.3125 -299.617188 797.003906 -292.75 793.578125 -289.3125 C 789.160156 -284.40625 785.722656 -279.863281 783.265625 -275.6875 C 780.804688 -271.519531 779.828125 -266.242188 780.328125 -259.859375 L 781.0625 -240.71875 C 781.550781 -232.375 780.445312 -225.867188 777.75 -221.203125 C 775.050781 -216.546875 772.101562 -212.375 768.90625 -208.6875 C 765.71875 -205.007812 762.894531 -201.578125 760.4375 -198.390625 C 757.988281 -195.203125 756.765625 -191.15625 756.765625 -186.25 C 756.765625 -183.789062 757.007812 -181.828125 757.5 -180.359375 C 751.125 -182.804688 744.742188 -184.890625 738.359375 -186.609375 C 731.984375 -188.328125 725.359375 -189.1875 718.484375 -189.1875 C 711.117188 -189.1875 704.492188 -187.710938 698.609375 -184.765625 C 692.722656 -181.828125 688.0625 -176.921875 684.625 -170.046875 C 684.625 -167.597656 685.113281 -165.144531 686.09375 -162.6875 C 687.070312 -160.238281 689.035156 -159.015625 691.984375 -159.015625 C 696.890625 -159.015625 701.304688 -160.972656 705.234375 -164.890625 C 709.160156 -168.816406 713.578125 -170.78125 718.484375 -170.78125 C 721.921875 -170.78125 724.128906 -169.0625 725.109375 -165.625 C 726.085938 -162.195312 726.578125 -159.253906 726.578125 -156.796875 C 726.578125 -150.421875 725.59375 -145.023438 723.625 -140.609375 C 721.664062 -136.191406 717.007812 -133.984375 709.65625 -133.984375 C 705.238281 -133.984375 700.941406 -134.472656 696.765625 -135.453125 C 692.597656 -136.429688 688.304688 -136.921875 683.890625 -136.921875 L 678 -132.5 C 680.9375 -124.164062 686.578125 -119.257812 694.921875 -117.78125 C 683.148438 -104.53125 669.535156 -91.035156 654.078125 -77.296875 C 638.617188 -63.554688 622.050781 -51.039062 604.375 -39.75 C 586.707031 -28.46875 568.300781 -19.265625 549.15625 -12.140625 C 530.019531 -5.023438 511.375 -1.46875 493.21875 -1.46875 C 481.4375 -1.46875 465.363281 -3.1875 445 -6.625 C 424.632812 -10.0625 403.65625 -14.351562 382.0625 -19.5 C 360.46875 -24.65625 339.976562 -30.546875 320.59375 -37.171875 C 301.207031 -43.796875 286.609375 -50.546875 276.796875 -57.421875 C 270.410156 -61.835938 266.847656 -65.515625 266.109375 -68.453125 C 265.378906 -71.398438 264.769531 -73.976562 264.28125 -76.1875 C 263.789062 -78.394531 262.316406 -80.601562 259.859375 -82.8125 C 257.410156 -85.019531 251.519531 -87.351562 242.1875 -89.8125 C 221.582031 -95.695312 206.613281 -102.8125 197.28125 -111.15625 C 187.957031 -119.5 181.332031 -128.207031 177.40625 -137.28125 C 173.488281 -146.363281 171.035156 -155.195312 170.046875 -163.78125 C 169.066406 -172.375 166.367188 -179.617188 161.953125 -185.515625 C 157.535156 -191.398438 152.875 -197.53125 147.96875 -203.90625 C 143.0625 -210.289062 138.398438 -216.914062 133.984375 -223.78125 C 129.566406 -230.65625 125.882812 -237.648438 122.9375 -244.765625 C 119.988281 -251.878906 118.515625 -259.363281 118.515625 -267.21875 C 118.515625 -273.113281 120.84375 -277.898438 125.5 -281.578125 C 130.164062 -285.253906 132.5 -289.300781 132.5 -293.71875 C 132.5 -295.195312 132.007812 -296.671875 131.03125 -298.140625 C 130.050781 -299.609375 129.070312 -300.835938 128.09375 -301.828125 C 122.695312 -307.710938 118.28125 -312.863281 114.84375 -317.28125 C 111.40625 -321.695312 108.703125 -326.359375 106.734375 -331.265625 C 104.773438 -336.171875 103.179688 -341.445312 101.953125 -347.09375 C 100.722656 -352.738281 99.863281 -359.488281 99.375 -367.34375 C 97.90625 -383.039062 94.835938 -398.617188 90.171875 -414.078125 C 85.515625 -429.546875 83.1875 -445.128906 83.1875 -460.828125 C 83.1875 -473.097656 83.429688 -485.367188 83.921875 -497.640625 C 84.410156 -509.910156 84.65625 -522.179688 84.65625 -534.453125 C 84.65625 -545.734375 86.003906 -556.894531 88.703125 -567.9375 C 91.398438 -578.976562 92.75 -589.898438 92.75 -600.703125 C 92.75 -608.554688 92.132812 -616.160156 90.90625 -623.515625 C 89.6875 -630.878906 89.078125 -638.488281 89.078125 -646.34375 C 89.078125 -664.5 91.648438 -682.285156 96.796875 -699.703125 C 101.953125 -717.128906 107.472656 -734.550781 113.359375 -751.96875 C 119.253906 -769.394531 124.773438 -786.941406 129.921875 -804.609375 C 135.078125 -822.273438 137.65625 -840.4375 137.65625 -859.09375 C 137.65625 -864 137.410156 -868.90625 136.921875 -873.8125 C 136.429688 -878.71875 136.1875 -883.867188 136.1875 -889.265625 C 136.1875 -898.597656 138.023438 -904.734375 141.703125 -907.671875 C 145.390625 -910.617188 149.316406 -912.457031 153.484375 -913.1875 C 157.660156 -913.925781 161.585938 -914.785156 165.265625 -915.765625 C 168.941406 -916.753906 170.78125 -920.191406 170.78125 -926.078125 C 170.78125 -929.515625 170.410156 -932.828125 169.671875 -936.015625 C 168.941406 -939.203125 168.578125 -942.515625 168.578125 -945.953125 C 168.578125 -949.878906 171.148438 -954.171875 176.296875 -958.828125 C 181.453125 -963.492188 187.34375 -968.523438 193.96875 -973.921875 C 200.601562 -979.328125 207.109375 -984.847656 213.484375 -990.484375 C 219.859375 -996.128906 224.273438 -1002.144531 226.734375 -1008.53125 C 229.191406 -1014.414062 233.238281 -1018.335938 238.875 -1020.296875 C 244.519531 -1022.265625 250.164062 -1023.863281 255.8125 -1025.09375 C 261.457031 -1026.320312 266.488281 -1027.796875 270.90625 -1029.515625 C 275.320312 -1031.234375 277.53125 -1035.035156 277.53125 -1040.921875 C 277.53125 -1043.867188 276.796875 -1047.550781 275.328125 -1051.96875 C 282.679688 -1048.53125 290.285156 -1046.195312 298.140625 -1044.96875 C 305.992188 -1043.738281 314.09375 -1043.125 322.4375 -1043.125 C 333.226562 -1043.125 342.179688 -1044.597656 349.296875 -1047.546875 C 356.421875 -1050.492188 362.925781 -1053.804688 368.8125 -1057.484375 C 374.695312 -1061.160156 380.953125 -1064.59375 387.578125 -1067.78125 C 394.203125 -1070.976562 402.425781 -1072.578125 412.25 -1072.578125 C 425.007812 -1072.578125 437.273438 -1074.660156 449.046875 -1078.828125 C 460.828125 -1083.003906 473.097656 -1085.09375 485.859375 -1085.09375 C 491.742188 -1085.09375 502.539062 -1083.375 518.25 -1079.9375 C 533.957031 -1076.5 550.03125 -1072.082031 566.46875 -1066.6875 C 582.90625 -1061.289062 597.625 -1055.398438 610.625 -1049.015625 C 623.632812 -1042.640625 630.632812 -1036.503906 631.625 -1030.609375 C 635.050781 -1031.597656 638.238281 -1032.09375 641.1875 -1032.09375 C 644.132812 -1032.09375 647.078125 -1032.09375 650.015625 -1032.09375 C 658.359375 -1032.09375 665.84375 -1031.109375 672.46875 -1029.140625 C 679.09375 -1027.179688 685.226562 -1024.726562 690.875 -1021.78125 C 696.519531 -1018.832031 702.164062 -1015.394531 707.8125 -1011.46875 C 713.457031 -1007.539062 719.46875 -1003.613281 725.84375 -999.6875 L 726.578125 -995.28125 L 727.3125 -991.59375 C 727.3125 -985.21875 725.71875 -979.328125 722.53125 -973.921875 C 719.34375 -968.523438 717.015625 -962.882812 715.546875 -957 C 717.015625 -952.582031 719.710938 -949.390625 723.640625 -947.421875 C 727.566406 -945.460938 731.492188 -943.5 735.421875 -941.53125 C 739.347656 -939.570312 743.023438 -937.363281 746.453125 -934.90625 C 749.890625 -932.457031 751.851562 -928.535156 752.34375 -923.140625 C 752.832031 -917.734375 753.9375 -913.4375 755.65625 -910.25 C 757.375 -907.0625 761.671875 -905.222656 768.546875 -904.734375 L 767.8125 -889.265625 L 767.8125 -881.90625 C 767.8125 -864.726562 770.628906 -850.003906 776.265625 -837.734375 C 781.910156 -825.472656 788.289062 -814.429688 795.40625 -804.609375 C 802.53125 -794.796875 808.910156 -785.347656 814.546875 -776.265625 C 820.191406 -767.191406 823.015625 -757.5 823.015625 -747.1875 C 823.015625 -737.375 820.679688 -728.171875 816.015625 -719.578125 C 811.359375 -710.992188 809.03125 -702.773438 809.03125 -694.921875 C 809.03125 -691.984375 810.75 -687.9375 814.1875 -682.78125 C 817.625 -677.625 821.300781 -671.609375 825.21875 -664.734375 C 829.144531 -657.867188 832.828125 -650.382812 836.265625 -642.28125 C 839.703125 -634.1875 841.421875 -625.476562 841.421875 -616.15625 C 841.421875 -599.957031 834.550781 -587.691406 820.8125 -579.359375 C 819.832031 -576.410156 819.34375 -573.953125 819.34375 -571.984375 C 819.34375 -567.566406 820.566406 -564.128906 823.015625 -561.671875 C 825.472656 -559.222656 828.050781 -557.015625 830.75 -555.046875 C 833.445312 -553.085938 836.019531 -550.632812 838.46875 -547.6875 C 840.925781 -544.75 842.15625 -540.335938 842.15625 -534.453125 C 842.15625 -528.554688 841.050781 -523.398438 838.84375 -518.984375 C 836.632812 -514.566406 834.179688 -510.515625 831.484375 -506.828125 C 828.785156 -503.148438 826.332031 -499.71875 824.125 -496.53125 C 821.914062 -493.34375 820.8125 -490.03125 820.8125 -486.59375 C 820.8125 -482.175781 822.035156 -478.375 824.484375 -475.1875 C 826.941406 -472 829.519531 -468.804688 832.21875 -465.609375 C 834.914062 -462.421875 837.488281 -459.109375 839.9375 -455.671875 C 842.394531 -452.242188 843.625 -448.320312 843.625 -443.90625 Z M 822.28125 -605.125 C 822.28125 -610.519531 820.070312 -614.195312 815.65625 -616.15625 C 811.238281 -618.125 807.066406 -619.109375 803.140625 -619.109375 C 793.328125 -619.109375 788.421875 -614.691406 788.421875 -605.859375 C 788.421875 -601.441406 790.257812 -598.25 793.9375 -596.28125 C 797.625 -594.320312 801.425781 -593.34375 805.34375 -593.34375 C 809.269531 -593.34375 813.070312 -594.320312 816.75 -596.28125 C 820.4375 -598.25 822.28125 -601.195312 822.28125 -605.125 Z M 742.046875 -537.390625 C 742.046875 -547.203125 740.203125 -556.398438 736.515625 -564.984375 C 732.835938 -573.578125 731 -582.785156 731 -592.609375 C 731 -603.890625 731.488281 -614.925781 732.46875 -625.71875 C 733.445312 -636.519531 733.9375 -647.566406 733.9375 -658.859375 C 733.9375 -666.222656 734.796875 -673.335938 736.515625 -680.203125 C 738.234375 -687.078125 739.09375 -693.945312 739.09375 -700.8125 C 739.09375 -708.664062 736.757812 -719.21875 732.09375 -732.46875 C 727.4375 -745.71875 721.914062 -759.582031 715.53125 -774.0625 C 709.15625 -788.539062 702.65625 -802.40625 696.03125 -815.65625 C 689.40625 -828.90625 684.375 -839.703125 680.9375 -848.046875 C 680.445312 -848.535156 679.710938 -850.128906 678.734375 -852.828125 C 677.753906 -855.523438 676.523438 -858.222656 675.046875 -860.921875 C 673.578125 -863.628906 672.226562 -866.085938 671 -868.296875 C 669.769531 -870.503906 668.664062 -871.609375 667.6875 -871.609375 C 667.195312 -870.617188 665.972656 -870.125 664.015625 -870.125 C 662.535156 -870.125 657.75 -873.3125 649.65625 -879.6875 C 641.5625 -886.070312 632.972656 -894.050781 623.890625 -903.625 C 614.804688 -913.195312 606.707031 -923.257812 599.59375 -933.8125 C 592.476562 -944.363281 588.921875 -954.054688 588.921875 -962.890625 C 588.921875 -965.335938 589.164062 -967.054688 589.65625 -968.046875 C 582.789062 -968.046875 574.570312 -968.898438 565 -970.609375 C 555.425781 -972.328125 545.851562 -974.90625 536.28125 -978.34375 C 526.71875 -981.78125 518.128906 -986.195312 510.515625 -991.59375 C 502.910156 -996.988281 497.882812 -1003.125 495.4375 -1010 C 483.164062 -1008.53125 471.257812 -1005.953125 459.71875 -1002.265625 C 448.1875 -998.585938 436.773438 -994.90625 425.484375 -991.21875 C 414.203125 -987.539062 402.671875 -984.226562 390.890625 -981.28125 C 379.117188 -978.34375 367.097656 -976.875 354.828125 -976.875 C 351.878906 -976.875 349.054688 -976.992188 346.359375 -977.234375 C 343.660156 -977.484375 340.835938 -977.851562 337.890625 -978.34375 C 339.367188 -975.40625 340.109375 -972.21875 340.109375 -968.78125 C 340.109375 -963.375 338.144531 -960.054688 334.21875 -958.828125 C 330.289062 -957.609375 325.625 -957 320.21875 -957 C 316.300781 -957 312.742188 -957.117188 309.546875 -957.359375 C 306.359375 -957.609375 303.539062 -957.734375 301.09375 -957.734375 L 295.9375 -957 L 296.671875 -950.375 L 296.671875 -947.421875 C 296.671875 -941.535156 295.070312 -936.628906 291.875 -932.703125 C 288.6875 -928.773438 284.882812 -925.335938 280.46875 -922.390625 C 276.050781 -919.453125 271.390625 -916.632812 266.484375 -913.9375 C 261.578125 -911.238281 257.40625 -908.171875 253.96875 -904.734375 C 259.863281 -903.753906 262.8125 -900.070312 262.8125 -893.6875 C 262.8125 -885.34375 259.617188 -875.160156 253.234375 -863.140625 C 246.859375 -851.117188 239.863281 -837.375 232.25 -821.90625 C 224.644531 -806.445312 217.648438 -789.757812 211.265625 -771.84375 C 204.890625 -753.9375 201.703125 -735.171875 201.703125 -715.546875 C 200.234375 -713.085938 198.269531 -711 195.8125 -709.28125 C 193.363281 -707.5625 190.664062 -706.703125 187.71875 -706.703125 C 183.789062 -706.703125 179.863281 -707.804688 175.9375 -710.015625 C 172.007812 -712.222656 167.835938 -713.328125 163.421875 -713.328125 C 159.003906 -713.328125 156.796875 -711.609375 156.796875 -708.171875 C 156.796875 -702.773438 158.390625 -698.113281 161.578125 -694.1875 C 164.773438 -690.257812 168.457031 -686.085938 172.625 -681.671875 C 176.800781 -677.253906 180.484375 -672.59375 183.671875 -667.6875 C 186.859375 -662.78125 188.453125 -656.890625 188.453125 -650.015625 C 188.453125 -632.835938 186.859375 -620.9375 183.671875 -614.3125 C 180.484375 -607.6875 177.046875 -602.78125 173.359375 -599.59375 C 169.679688 -596.40625 166.367188 -592.722656 163.421875 -588.546875 C 160.484375 -584.378906 159.015625 -576.160156 159.015625 -563.890625 C 159.015625 -560.941406 159.015625 -558.117188 159.015625 -555.421875 C 159.015625 -552.722656 159.257812 -550.148438 159.75 -547.703125 C 153.363281 -539.359375 146.242188 -532.484375 138.390625 -527.078125 C 145.753906 -524.628906 151.890625 -520.582031 156.796875 -514.9375 C 161.703125 -509.289062 165.628906 -503.398438 168.578125 -497.265625 C 171.523438 -491.128906 173.734375 -484.867188 175.203125 -478.484375 C 176.671875 -472.109375 177.40625 -466.960938 177.40625 -463.046875 C 177.40625 -448.316406 178.753906 -433.710938 181.453125 -419.234375 C 184.160156 -404.753906 185.515625 -390.15625 185.515625 -375.4375 C 185.515625 -362.1875 184.410156 -353.109375 182.203125 -348.203125 C 179.992188 -343.296875 177.414062 -340.101562 174.46875 -338.625 C 171.519531 -337.15625 168.941406 -336.539062 166.734375 -336.78125 C 164.523438 -337.03125 163.421875 -335.679688 163.421875 -332.734375 C 163.421875 -329.304688 164.648438 -327.59375 167.109375 -327.59375 C 171.035156 -327.59375 175.207031 -328.816406 179.625 -331.265625 C 184.039062 -333.722656 187.96875 -335.929688 191.40625 -337.890625 C 192.382812 -333.960938 192.875 -328.316406 192.875 -320.953125 C 192.875 -313.597656 192.992188 -306.238281 193.234375 -298.875 C 193.484375 -291.507812 194.46875 -285.003906 196.1875 -279.359375 C 197.90625 -273.722656 201.21875 -270.414062 206.125 -269.4375 C 213.488281 -267.957031 218.640625 -265.5 221.578125 -262.0625 C 224.523438 -258.632812 226.859375 -254.710938 228.578125 -250.296875 C 230.296875 -245.878906 232.132812 -241.335938 234.09375 -236.671875 C 236.0625 -232.003906 239.988281 -227.957031 245.875 -224.53125 C 253.726562 -220.113281 261.085938 -214.59375 267.953125 -207.96875 C 274.828125 -201.34375 281.941406 -195.082031 289.296875 -189.1875 C 296.660156 -183.300781 304.390625 -178.023438 312.484375 -173.359375 C 320.585938 -168.703125 329.546875 -166.128906 339.359375 -165.640625 C 356.535156 -164.160156 373.835938 -162.070312 391.265625 -159.375 C 408.691406 -156.675781 425.988281 -153.363281 443.15625 -149.4375 C 449.539062 -147.476562 456.90625 -146.5 465.25 -146.5 C 475.0625 -146.5 484.753906 -147.847656 494.328125 -150.546875 C 503.898438 -153.242188 513.46875 -156.1875 523.03125 -159.375 C 532.601562 -162.5625 542.296875 -165.503906 552.109375 -168.203125 C 561.929688 -170.910156 571.75 -172.265625 581.5625 -172.265625 C 587.445312 -172.265625 593.828125 -171.523438 600.703125 -170.046875 C 600.210938 -171.035156 599.96875 -172.753906 599.96875 -175.203125 C 599.96875 -180.597656 602.785156 -187.585938 608.421875 -196.171875 C 614.066406 -204.765625 620.816406 -213.234375 628.671875 -221.578125 C 636.523438 -229.921875 644.625 -237.160156 652.96875 -243.296875 C 661.3125 -249.429688 668.179688 -252.988281 673.578125 -253.96875 C 672.109375 -256.425781 671.25 -259.25 671 -262.4375 C 670.757812 -265.625 670.640625 -268.691406 670.640625 -271.640625 C 670.640625 -279.003906 671.863281 -287.101562 674.3125 -295.9375 C 676.769531 -304.769531 681.675781 -310.90625 689.03125 -314.34375 C 692.46875 -315.8125 695.289062 -318.875 697.5 -323.53125 C 699.707031 -328.195312 701.425781 -333.71875 702.65625 -340.09375 C 703.882812 -346.476562 704.742188 -353.472656 705.234375 -361.078125 C 705.722656 -368.691406 705.96875 -376.175781 705.96875 -383.53125 C 705.96875 -392.363281 705.84375 -400.582031 705.59375 -408.1875 C 705.351562 -415.800781 705.234375 -421.570312 705.234375 -425.5 L 705.234375 -432.859375 C 712.597656 -437.765625 717.75 -445 720.6875 -454.5625 C 723.632812 -464.132812 725.722656 -473.582031 726.953125 -482.90625 C 728.179688 -492.238281 729.039062 -500.582031 729.53125 -507.9375 C 730.019531 -515.300781 731.242188 -519.722656 733.203125 -521.203125 C 739.097656 -525.617188 742.046875 -531.015625 742.046875 -537.390625 Z M 612.484375 -118.515625 L 609.53125 -118.515625 C 599.71875 -118.515625 591.617188 -115.320312 585.234375 -108.9375 C 578.859375 -102.5625 573.460938 -94.957031 569.046875 -86.125 C 570.515625 -91.03125 573.703125 -93.484375 578.609375 -93.484375 C 578.609375 -91.035156 577.628906 -89.195312 575.671875 -87.96875 C 573.710938 -86.738281 571.503906 -86.125 569.046875 -86.125 C 574.929688 -86.125 580.816406 -85.753906 586.703125 -85.015625 C 592.597656 -84.285156 598.488281 -83.921875 604.375 -83.921875 C 608.789062 -83.921875 612.226562 -85.023438 614.6875 -87.234375 C 617.144531 -89.441406 618.863281 -92.265625 619.84375 -95.703125 C 620.820312 -99.140625 621.3125 -102.816406 621.3125 -106.734375 C 621.3125 -110.660156 621.3125 -114.34375 621.3125 -117.78125 Z M 612.484375 -118.515625 "/></g></g></g><g clip-path="url(#bf22d36156)"><g clip-path="url(#c98e55c7ed)"><g transform="matrix(1, 0, 0, 1, 379, 1438)"><g clip-path="url(#90e6f201ae)"><g clip-path="url(#f6bc10ae53)"><g clip-path="url(#824a90b60a)"><path fill="#92e5bd" d="M 0.5 0.8125 L 98.832031 0.8125 L 98.832031 99.140625 L 0.5 99.140625 Z M 0.5 0.8125 " fill-opacity="1" fill-rule="nonzero"/></g></g></g></g></g></g><g clip-path="url(#620bab8c69)"><g clip-path="url(#2dab041bb4)"><g transform="matrix(1, 0, 0, 1, 1007, 1438)"><g clip-path="url(#34e24aa282)"><g clip-path="url(#da62f9a9aa)"><g clip-path="url(#a866ef3866)"><path fill="#92e5bd" d="M 0.222656 0.8125 L 98.554688 0.8125 L 98.554688 99.140625 L 0.222656 99.140625 Z M 0.222656 0.8125 " fill-opacity="1" fill-rule="nonzero"/></g></g></g></g></g></g><g clip-path="url(#24edd14333)"><g clip-path="url(#4b248685c1)"><g transform="matrix(1, 0, 0, 1, 797, 1438)"><g clip-path="url(#8928e635f8)"><g clip-path="url(#380a31b29b)"><g clip-path="url(#8b7ccd0531)"><path fill="#92e5bd" d="M 0.894531 0.8125 L 99.222656 0.8125 L 99.222656 99.140625 L 0.894531 99.140625 Z M 0.894531 0.8125 " fill-opacity="1" fill-rule="nonzero"/></g></g></g></g></g></g><g clip-path="url(#c533c9de5e)"><g clip-path="url(#27a4fdcee6)"><g transform="matrix(1, 0, 0, 1, 588, 1438)"><g clip-path="url(#ea245f5880)"><g clip-path="url(#0e827e89fc)"><g clip-path="url(#14c22df505)"><path fill="#92e5bd" d="M 0.5625 0.8125 L 98.894531 0.8125 L 98.894531 99.140625 L 0.5625 99.140625 Z M 0.5625 0.8125 " fill-opacity="1" fill-rule="nonzero"/></g></g></g></g></g></g></svg>