<svg xmlns="http://www.w3.org/2000/svg" xmlns:xlink="http://www.w3.org/1999/xlink" width="2000" zoomAndPan="magnify" viewBox="0 0 1500 1799.999925" height="2400" preserveAspectRatio="xMidYMid meet" version="1.0"><defs><g/><clipPath id="d84962ee65"><path d="M 379.5 1438.8125 L 477.832031 1438.8125 L 477.832031 1537.140625 L 379.5 1537.140625 Z M 379.5 1438.8125 " clip-rule="nonzero"/></clipPath><clipPath id="5f37975e7f"><path d="M 428.667969 1438.8125 C 401.511719 1438.8125 379.5 1460.824219 379.5 1487.976562 C 379.5 1515.128906 401.511719 1537.140625 428.667969 1537.140625 C 455.820312 1537.140625 477.832031 1515.128906 477.832031 1487.976562 C 477.832031 1460.824219 455.820312 1438.8125 428.667969 1438.8125 Z M 428.667969 1438.8125 " clip-rule="nonzero"/></clipPath><clipPath id="2a8452e155"><path d="M 0.5 0.8125 L 98.832031 0.8125 L 98.832031 99.140625 L 0.5 99.140625 Z M 0.5 0.8125 " clip-rule="nonzero"/></clipPath><clipPath id="7a99a1e44c"><path d="M 49.667969 0.8125 C 22.511719 0.8125 0.5 22.824219 0.5 49.976562 C 0.5 77.128906 22.511719 99.140625 49.667969 99.140625 C 76.820312 99.140625 98.832031 77.128906 98.832031 49.976562 C 98.832031 22.824219 76.820312 0.8125 49.667969 0.8125 Z M 49.667969 0.8125 " clip-rule="nonzero"/></clipPath><clipPath id="63907f4b49"><rect x="0" width="99" y="0" height="100"/></clipPath><clipPath id="a9fc91184a"><path d="M 1007.222656 1438.8125 L 1105.554688 1438.8125 L 1105.554688 1537.140625 L 1007.222656 1537.140625 Z M 1007.222656 1438.8125 " clip-rule="nonzero"/></clipPath><clipPath id="2a66d1b3f8"><path d="M 1056.390625 1438.8125 C 1029.234375 1438.8125 1007.222656 1460.824219 1007.222656 1487.976562 C 1007.222656 1515.128906 1029.234375 1537.140625 1056.390625 1537.140625 C 1083.542969 1537.140625 1105.554688 1515.128906 1105.554688 1487.976562 C 1105.554688 1460.824219 1083.542969 1438.8125 1056.390625 1438.8125 Z M 1056.390625 1438.8125 " clip-rule="nonzero"/></clipPath><clipPath id="4b521d821b"><path d="M 0.222656 0.8125 L 98.554688 0.8125 L 98.554688 99.140625 L 0.222656 99.140625 Z M 0.222656 0.8125 " clip-rule="nonzero"/></clipPath><clipPath id="b3addfa686"><path d="M 49.390625 0.8125 C 22.234375 0.8125 0.222656 22.824219 0.222656 49.976562 C 0.222656 77.128906 22.234375 99.140625 49.390625 99.140625 C 76.542969 99.140625 98.554688 77.128906 98.554688 49.976562 C 98.554688 22.824219 76.542969 0.8125 49.390625 0.8125 Z M 49.390625 0.8125 " clip-rule="nonzero"/></clipPath><clipPath id="314c2121ac"><rect x="0" width="99" y="0" height="100"/></clipPath><clipPath id="2b490af723"><path d="M 797.894531 1438.8125 L 896.222656 1438.8125 L 896.222656 1537.140625 L 797.894531 1537.140625 Z M 797.894531 1438.8125 " clip-rule="nonzero"/></clipPath><clipPath id="84cc003c0c"><path d="M 847.058594 1438.8125 C 819.90625 1438.8125 797.894531 1460.824219 797.894531 1487.976562 C 797.894531 1515.128906 819.90625 1537.140625 847.058594 1537.140625 C 874.210938 1537.140625 896.222656 1515.128906 896.222656 1487.976562 C 896.222656 1460.824219 874.210938 1438.8125 847.058594 1438.8125 Z M 847.058594 1438.8125 " clip-rule="nonzero"/></clipPath><clipPath id="0a060a6de5"><path d="M 0.894531 0.8125 L 99.222656 0.8125 L 99.222656 99.140625 L 0.894531 99.140625 Z M 0.894531 0.8125 " clip-rule="nonzero"/></clipPath><clipPath id="765adf2e16"><path d="M 50.058594 0.8125 C 22.90625 0.8125 0.894531 22.824219 0.894531 49.976562 C 0.894531 77.128906 22.90625 99.140625 50.058594 99.140625 C 77.210938 99.140625 99.222656 77.128906 99.222656 49.976562 C 99.222656 22.824219 77.210938 0.8125 50.058594 0.8125 Z M 50.058594 0.8125 " clip-rule="nonzero"/></clipPath><clipPath id="52b4d907f0"><rect x="0" width="100" y="0" height="100"/></clipPath><clipPath id="ef560eae3c"><path d="M 588.5625 1438.8125 L 686.894531 1438.8125 L 686.894531 1537.140625 L 588.5625 1537.140625 Z M 588.5625 1438.8125 " clip-rule="nonzero"/></clipPath><clipPath id="0467477931"><path d="M 637.730469 1438.8125 C 610.574219 1438.8125 588.5625 1460.824219 588.5625 1487.976562 C 588.5625 1515.128906 610.574219 1537.140625 637.730469 1537.140625 C 664.882812 1537.140625 686.894531 1515.128906 686.894531 1487.976562 C 686.894531 1460.824219 664.882812 1438.8125 637.730469 1438.8125 Z M 637.730469 1438.8125 " clip-rule="nonzero"/></clipPath><clipPath id="9ff4508287"><path d="M 0.5625 0.8125 L 98.894531 0.8125 L 98.894531 99.140625 L 0.5625 99.140625 Z M 0.5625 0.8125 " clip-rule="nonzero"/></clipPath><clipPath id="fe2730559c"><path d="M 49.730469 0.8125 C 22.574219 0.8125 0.5625 22.824219 0.5625 49.976562 C 0.5625 77.128906 22.574219 99.140625 49.730469 99.140625 C 76.882812 99.140625 98.894531 77.128906 98.894531 49.976562 C 98.894531 22.824219 76.882812 0.8125 49.730469 0.8125 Z M 49.730469 0.8125 " clip-rule="nonzero"/></clipPath><clipPath id="7faad222cb"><rect x="0" width="99" y="0" height="100"/></clipPath></defs><g fill="#92e5bd" fill-opacity="1"><g transform="translate(319.718589, 1185.013406)"><g><path d="M 170.78125 -64.78125 C 135.445312 -87.351562 107.472656 -115.570312 86.859375 -149.4375 C 66.253906 -183.300781 55.953125 -219.863281 55.953125 -259.125 C 55.953125 -298.382812 61.835938 -345.003906 73.609375 -398.984375 C 85.390625 -452.972656 100.359375 -503.035156 118.515625 -549.171875 C 136.679688 -595.304688 158.769531 -639.96875 184.78125 -683.15625 C 210.789062 -726.34375 240.476562 -764.617188 273.84375 -797.984375 C 347.457031 -869.640625 430.890625 -905.46875 524.140625 -905.46875 C 649.773438 -905.46875 745.96875 -859.335938 812.71875 -767.078125 C 874.550781 -683.640625 905.46875 -580.085938 905.46875 -456.421875 C 905.46875 -310.171875 858.84375 -196.3125 765.59375 -114.84375 C 674.3125 -36.320312 553.09375 2.9375 401.9375 2.9375 C 314.582031 2.9375 237.53125 -19.632812 170.78125 -64.78125 Z M 142.8125 -269.4375 C 142.8125 -136.925781 237.039062 -70.671875 425.5 -70.671875 C 560.945312 -70.671875 662.78125 -105.515625 731 -175.203125 C 799.21875 -244.890625 833.328125 -344.023438 833.328125 -472.609375 C 833.328125 -476.535156 833.328125 -480.460938 833.328125 -484.390625 C 833.328125 -597.265625 805.351562 -683.640625 749.40625 -743.515625 C 693.457031 -803.390625 616.894531 -833.328125 519.71875 -833.328125 C 508.925781 -833.328125 499.359375 -833.328125 491.015625 -833.328125 C 482.671875 -833.328125 475.0625 -833.328125 468.1875 -833.328125 C 416.164062 -833.328125 364.632812 -797.988281 313.59375 -727.3125 C 265.5 -662.53125 224.273438 -579.59375 189.921875 -478.5 C 158.515625 -386.238281 142.8125 -316.550781 142.8125 -269.4375 Z M 142.8125 -269.4375 "/></g></g></g><g clip-path="url(#d84962ee65)"><g clip-path="url(#5f37975e7f)"><g transform="matrix(1, 0, 0, 1, 379, 1438)"><g clip-path="url(#63907f4b49)"><g clip-path="url(#2a8452e155)"><g clip-path="url(#7a99a1e44c)"><path fill="#92e5bd" d="M 0.5 0.8125 L 98.832031 0.8125 L 98.832031 99.140625 L 0.5 99.140625 Z M 0.5 0.8125 " fill-opacity="1" fill-rule="nonzero"/></g></g></g></g></g></g><g clip-path="url(#a9fc91184a)"><g clip-path="url(#2a66d1b3f8)"><g transform="matrix(1, 0, 0, 1, 1007, 1438)"><g clip-path="url(#314c2121ac)"><g clip-path="url(#4b521d821b)"><g clip-path="url(#b3addfa686)"><path fill="#92e5bd" d="M 0.222656 0.8125 L 98.554688 0.8125 L 98.554688 99.140625 L 0.222656 99.140625 Z M 0.222656 0.8125 " fill-opacity="1" fill-rule="nonzero"/></g></g></g></g></g></g><g clip-path="url(#2b490af723)"><g clip-path="url(#84cc003c0c)"><g transform="matrix(1, 0, 0, 1, 797, 1438)"><g clip-path="url(#52b4d907f0)"><g clip-path="url(#0a060a6de5)"><g clip-path="url(#765adf2e16)"><path fill="#92e5bd" d="M 0.894531 0.8125 L 99.222656 0.8125 L 99.222656 99.140625 L 0.894531 99.140625 Z M 0.894531 0.8125 " fill-opacity="1" fill-rule="nonzero"/></g></g></g></g></g></g><g clip-path="url(#ef560eae3c)"><g clip-path="url(#0467477931)"><g transform="matrix(1, 0, 0, 1, 588, 1438)"><g clip-path="url(#7faad222cb)"><g clip-path="url(#9ff4508287)"><g clip-path="url(#fe2730559c)"><path fill="#92e5bd" d="M 0.5625 0.8125 L 98.894531 0.8125 L 98.894531 99.140625 L 0.5625 99.140625 Z M 0.5625 0.8125 " fill-opacity="1" fill-rule="nonzero"/></g></g></g></g></g></g></svg>