<svg xmlns="http://www.w3.org/2000/svg" xmlns:xlink="http://www.w3.org/1999/xlink" width="2000" zoomAndPan="magnify" viewBox="0 0 1500 1799.999925" height="2400" preserveAspectRatio="xMidYMid meet" version="1.0"><defs><g/><clipPath id="4c62c98ed1"><path d="M 379.5 1438.8125 L 477.832031 1438.8125 L 477.832031 1537.140625 L 379.5 1537.140625 Z M 379.5 1438.8125 " clip-rule="nonzero"/></clipPath><clipPath id="460692cd80"><path d="M 428.667969 1438.8125 C 401.511719 1438.8125 379.5 1460.824219 379.5 1487.976562 C 379.5 1515.128906 401.511719 1537.140625 428.667969 1537.140625 C 455.820312 1537.140625 477.832031 1515.128906 477.832031 1487.976562 C 477.832031 1460.824219 455.820312 1438.8125 428.667969 1438.8125 Z M 428.667969 1438.8125 " clip-rule="nonzero"/></clipPath><clipPath id="f119f48511"><path d="M 0.5 0.8125 L 98.832031 0.8125 L 98.832031 99.140625 L 0.5 99.140625 Z M 0.5 0.8125 " clip-rule="nonzero"/></clipPath><clipPath id="4e9c1512b6"><path d="M 49.667969 0.8125 C 22.511719 0.8125 0.5 22.824219 0.5 49.976562 C 0.5 77.128906 22.511719 99.140625 49.667969 99.140625 C 76.820312 99.140625 98.832031 77.128906 98.832031 49.976562 C 98.832031 22.824219 76.820312 0.8125 49.667969 0.8125 Z M 49.667969 0.8125 " clip-rule="nonzero"/></clipPath><clipPath id="e2f211dbe0"><rect x="0" width="99" y="0" height="100"/></clipPath><clipPath id="25c77435c4"><path d="M 1007.222656 1438.8125 L 1105.554688 1438.8125 L 1105.554688 1537.140625 L 1007.222656 1537.140625 Z M 1007.222656 1438.8125 " clip-rule="nonzero"/></clipPath><clipPath id="35187bef8d"><path d="M 1056.390625 1438.8125 C 1029.234375 1438.8125 1007.222656 1460.824219 1007.222656 1487.976562 C 1007.222656 1515.128906 1029.234375 1537.140625 1056.390625 1537.140625 C 1083.542969 1537.140625 1105.554688 1515.128906 1105.554688 1487.976562 C 1105.554688 1460.824219 1083.542969 1438.8125 1056.390625 1438.8125 Z M 1056.390625 1438.8125 " clip-rule="nonzero"/></clipPath><clipPath id="22ba2c5bc0"><path d="M 0.222656 0.8125 L 98.554688 0.8125 L 98.554688 99.140625 L 0.222656 99.140625 Z M 0.222656 0.8125 " clip-rule="nonzero"/></clipPath><clipPath id="f318a721bd"><path d="M 49.390625 0.8125 C 22.234375 0.8125 0.222656 22.824219 0.222656 49.976562 C 0.222656 77.128906 22.234375 99.140625 49.390625 99.140625 C 76.542969 99.140625 98.554688 77.128906 98.554688 49.976562 C 98.554688 22.824219 76.542969 0.8125 49.390625 0.8125 Z M 49.390625 0.8125 " clip-rule="nonzero"/></clipPath><clipPath id="5048c7a88f"><rect x="0" width="99" y="0" height="100"/></clipPath><clipPath id="d174eab385"><path d="M 797.894531 1438.8125 L 896.222656 1438.8125 L 896.222656 1537.140625 L 797.894531 1537.140625 Z M 797.894531 1438.8125 " clip-rule="nonzero"/></clipPath><clipPath id="d4c2416818"><path d="M 847.058594 1438.8125 C 819.90625 1438.8125 797.894531 1460.824219 797.894531 1487.976562 C 797.894531 1515.128906 819.90625 1537.140625 847.058594 1537.140625 C 874.210938 1537.140625 896.222656 1515.128906 896.222656 1487.976562 C 896.222656 1460.824219 874.210938 1438.8125 847.058594 1438.8125 Z M 847.058594 1438.8125 " clip-rule="nonzero"/></clipPath><clipPath id="5cca5ae0c1"><path d="M 0.894531 0.8125 L 99.222656 0.8125 L 99.222656 99.140625 L 0.894531 99.140625 Z M 0.894531 0.8125 " clip-rule="nonzero"/></clipPath><clipPath id="ae6496c685"><path d="M 50.058594 0.8125 C 22.90625 0.8125 0.894531 22.824219 0.894531 49.976562 C 0.894531 77.128906 22.90625 99.140625 50.058594 99.140625 C 77.210938 99.140625 99.222656 77.128906 99.222656 49.976562 C 99.222656 22.824219 77.210938 0.8125 50.058594 0.8125 Z M 50.058594 0.8125 " clip-rule="nonzero"/></clipPath><clipPath id="4c995352c8"><rect x="0" width="100" y="0" height="100"/></clipPath><clipPath id="2f5766238a"><path d="M 588.5625 1438.8125 L 686.894531 1438.8125 L 686.894531 1537.140625 L 588.5625 1537.140625 Z M 588.5625 1438.8125 " clip-rule="nonzero"/></clipPath><clipPath id="ad732841c7"><path d="M 637.730469 1438.8125 C 610.574219 1438.8125 588.5625 1460.824219 588.5625 1487.976562 C 588.5625 1515.128906 610.574219 1537.140625 637.730469 1537.140625 C 664.882812 1537.140625 686.894531 1515.128906 686.894531 1487.976562 C 686.894531 1460.824219 664.882812 1438.8125 637.730469 1438.8125 Z M 637.730469 1438.8125 " clip-rule="nonzero"/></clipPath><clipPath id="8eac4926e9"><path d="M 0.5625 0.8125 L 98.894531 0.8125 L 98.894531 99.140625 L 0.5625 99.140625 Z M 0.5625 0.8125 " clip-rule="nonzero"/></clipPath><clipPath id="ac6c082b4b"><path d="M 49.730469 0.8125 C 22.574219 0.8125 0.5625 22.824219 0.5625 49.976562 C 0.5625 77.128906 22.574219 99.140625 49.730469 99.140625 C 76.882812 99.140625 98.894531 77.128906 98.894531 49.976562 C 98.894531 22.824219 76.882812 0.8125 49.730469 0.8125 Z M 49.730469 0.8125 " clip-rule="nonzero"/></clipPath><clipPath id="384b00efa5"><rect x="0" width="99" y="0" height="100"/></clipPath></defs><g fill="#92e5bd" fill-opacity="1"><g transform="translate(413.034988, 1242.01349)"><g><path d="M 438.734375 -396.515625 L 441.75 -444.75 C 445.769531 -479.925781 443.253906 -530.179688 434.203125 -595.515625 C 433.203125 -630.691406 429.179688 -657.578125 422.140625 -676.171875 C 415.109375 -694.765625 400.535156 -721.148438 378.421875 -755.328125 C 360.328125 -771.410156 351.28125 -781.960938 351.28125 -786.984375 C 340.226562 -798.046875 327.164062 -790.003906 312.09375 -762.859375 C 308.070312 -747.785156 288.472656 -704.566406 253.296875 -633.203125 C 256.304688 -625.160156 253.289062 -616.617188 244.25 -607.578125 C 242.238281 -604.566406 241.234375 -598.535156 241.234375 -589.484375 C 244.242188 -583.453125 245.25 -574.910156 244.25 -563.859375 C 241.226562 -553.804688 238.210938 -511.59375 235.203125 -437.21875 C 235.203125 -395 238.71875 -364.84375 245.75 -346.75 C 245.75 -312.582031 247.757812 -285.445312 251.78125 -265.34375 C 250.78125 -237.195312 252.789062 -215.085938 257.8125 -199.015625 C 271.882812 -165.835938 286.960938 -149.25 303.046875 -149.25 C 319.128906 -149.25 336.96875 -162.316406 356.5625 -188.453125 C 376.164062 -214.585938 391.492188 -246.75 402.546875 -284.9375 C 401.546875 -292.976562 403.054688 -297 407.078125 -297 C 407.078125 -304.039062 409.835938 -315.851562 415.359375 -332.4375 C 420.890625 -349.019531 423.65625 -360.328125 423.65625 -366.359375 Z M 87.453125 -714.625 L 91.96875 -746.28125 C 91.96875 -753.3125 96.992188 -762.859375 107.046875 -774.921875 C 113.078125 -791.003906 115.84375 -801.554688 115.34375 -806.578125 C 114.84375 -811.609375 119.867188 -824.925781 130.421875 -846.53125 C 140.972656 -868.144531 150.769531 -883.222656 159.8125 -891.765625 C 168.863281 -900.304688 177.410156 -910.609375 185.453125 -922.671875 C 185.453125 -927.703125 188.71875 -933.234375 195.25 -939.265625 C 201.78125 -945.296875 208.5625 -948.8125 215.59375 -949.8125 C 238.71875 -957.851562 256.3125 -959.863281 268.375 -955.84375 C 299.53125 -943.78125 318.125 -941.269531 324.15625 -948.3125 C 326.164062 -951.320312 336.46875 -954.582031 355.0625 -958.09375 C 373.65625 -961.613281 386.71875 -963.125 394.25 -962.625 C 401.789062 -962.125 410.082031 -958.359375 419.125 -951.328125 C 454.3125 -934.234375 489.238281 -901.0625 523.90625 -851.8125 C 558.582031 -802.5625 582.957031 -750.800781 597.03125 -696.53125 C 619.144531 -628.1875 626.679688 -560.84375 619.640625 -494.5 C 612.609375 -419.125 596.53125 -343.238281 571.40625 -266.84375 C 546.28125 -190.457031 530.953125 -146.738281 525.421875 -135.6875 C 519.890625 -124.632812 515.363281 -116.34375 511.84375 -110.8125 C 508.332031 -105.28125 506.070312 -99.25 505.0625 -92.71875 C 504.0625 -86.1875 496.523438 -74.878906 482.453125 -58.796875 C 468.378906 -42.710938 457.828125 -33.664062 450.796875 -31.65625 C 422.648438 -9.550781 397.519531 2.003906 375.40625 3.015625 C 370.382812 4.015625 362.09375 4.265625 350.53125 3.765625 C 338.976562 3.265625 328.675781 3.015625 319.625 3.015625 C 310.582031 3.015625 303.546875 4.019531 298.515625 6.03125 C 280.429688 4.019531 266.109375 3.265625 255.546875 3.765625 C 244.992188 4.265625 230.171875 -0.00390625 211.078125 -9.046875 C 180.921875 -28.140625 156.796875 -51.757812 138.703125 -79.90625 C 134.691406 -96.988281 129.164062 -109.050781 122.125 -116.09375 L 107.046875 -149.25 C 95.992188 -156.289062 89.460938 -177.898438 87.453125 -214.078125 C 56.296875 -304.535156 48.757812 -448.265625 64.84375 -645.265625 C 64.84375 -658.335938 68.359375 -664.875 75.390625 -664.875 C 78.398438 -669.894531 79.40625 -675.925781 78.40625 -682.96875 C 78.40625 -690 81.421875 -700.550781 87.453125 -714.625 Z M 87.453125 -714.625 "/></g></g></g><g clip-path="url(#4c62c98ed1)"><g clip-path="url(#460692cd80)"><g transform="matrix(1, 0, 0, 1, 379, 1438)"><g clip-path="url(#e2f211dbe0)"><g clip-path="url(#f119f48511)"><g clip-path="url(#4e9c1512b6)"><path fill="#92e5bd" d="M 0.5 0.8125 L 98.832031 0.8125 L 98.832031 99.140625 L 0.5 99.140625 Z M 0.5 0.8125 " fill-opacity="1" fill-rule="nonzero"/></g></g></g></g></g></g><g clip-path="url(#25c77435c4)"><g clip-path="url(#35187bef8d)"><g transform="matrix(1, 0, 0, 1, 1007, 1438)"><g clip-path="url(#5048c7a88f)"><g clip-path="url(#22ba2c5bc0)"><g clip-path="url(#f318a721bd)"><path fill="#92e5bd" d="M 0.222656 0.8125 L 98.554688 0.8125 L 98.554688 99.140625 L 0.222656 99.140625 Z M 0.222656 0.8125 " fill-opacity="1" fill-rule="nonzero"/></g></g></g></g></g></g><g clip-path="url(#d174eab385)"><g clip-path="url(#d4c2416818)"><g transform="matrix(1, 0, 0, 1, 797, 1438)"><g clip-path="url(#4c995352c8)"><g clip-path="url(#5cca5ae0c1)"><g clip-path="url(#ae6496c685)"><path fill="#92e5bd" d="M 0.894531 0.8125 L 99.222656 0.8125 L 99.222656 99.140625 L 0.894531 99.140625 Z M 0.894531 0.8125 " fill-opacity="1" fill-rule="nonzero"/></g></g></g></g></g></g><g clip-path="url(#2f5766238a)"><g clip-path="url(#ad732841c7)"><g transform="matrix(1, 0, 0, 1, 588, 1438)"><g clip-path="url(#384b00efa5)"><g clip-path="url(#8eac4926e9)"><g clip-path="url(#ac6c082b4b)"><path fill="#92e5bd" d="M 0.5625 0.8125 L 98.894531 0.8125 L 98.894531 99.140625 L 0.5625 99.140625 Z M 0.5625 0.8125 " fill-opacity="1" fill-rule="nonzero"/></g></g></g></g></g></g></svg>