<svg xmlns="http://www.w3.org/2000/svg" xmlns:xlink="http://www.w3.org/1999/xlink" width="2000" zoomAndPan="magnify" viewBox="0 0 1500 1799.999925" height="2400" preserveAspectRatio="xMidYMid meet" version="1.0"><defs><g/><clipPath id="cc19a661ef"><path d="M 379.5 1438.8125 L 477.832031 1438.8125 L 477.832031 1537.140625 L 379.5 1537.140625 Z M 379.5 1438.8125 " clip-rule="nonzero"/></clipPath><clipPath id="d05168ebd5"><path d="M 428.667969 1438.8125 C 401.511719 1438.8125 379.5 1460.824219 379.5 1487.976562 C 379.5 1515.128906 401.511719 1537.140625 428.667969 1537.140625 C 455.820312 1537.140625 477.832031 1515.128906 477.832031 1487.976562 C 477.832031 1460.824219 455.820312 1438.8125 428.667969 1438.8125 Z M 428.667969 1438.8125 " clip-rule="nonzero"/></clipPath><clipPath id="86c0878df2"><path d="M 0.5 0.8125 L 98.832031 0.8125 L 98.832031 99.140625 L 0.5 99.140625 Z M 0.5 0.8125 " clip-rule="nonzero"/></clipPath><clipPath id="2c9d67bca3"><path d="M 49.667969 0.8125 C 22.511719 0.8125 0.5 22.824219 0.5 49.976562 C 0.5 77.128906 22.511719 99.140625 49.667969 99.140625 C 76.820312 99.140625 98.832031 77.128906 98.832031 49.976562 C 98.832031 22.824219 76.820312 0.8125 49.667969 0.8125 Z M 49.667969 0.8125 " clip-rule="nonzero"/></clipPath><clipPath id="5d38175118"><rect x="0" width="99" y="0" height="100"/></clipPath><clipPath id="aab1cdd76e"><path d="M 1081.953125 1438.8125 L 1180.28125 1438.8125 L 1180.28125 1537.140625 L 1081.953125 1537.140625 Z M 1081.953125 1438.8125 " clip-rule="nonzero"/></clipPath><clipPath id="5cefadb047"><path d="M 1131.117188 1438.8125 C 1103.964844 1438.8125 1081.953125 1460.824219 1081.953125 1487.976562 C 1081.953125 1515.128906 1103.964844 1537.140625 1131.117188 1537.140625 C 1158.269531 1537.140625 1180.28125 1515.128906 1180.28125 1487.976562 C 1180.28125 1460.824219 1158.269531 1438.8125 1131.117188 1438.8125 Z M 1131.117188 1438.8125 " clip-rule="nonzero"/></clipPath><clipPath id="73e6ca5983"><path d="M 0.953125 0.8125 L 99.28125 0.8125 L 99.28125 99.140625 L 0.953125 99.140625 Z M 0.953125 0.8125 " clip-rule="nonzero"/></clipPath><clipPath id="9775fa38c2"><path d="M 50.117188 0.8125 C 22.964844 0.8125 0.953125 22.824219 0.953125 49.976562 C 0.953125 77.128906 22.964844 99.140625 50.117188 99.140625 C 77.269531 99.140625 99.28125 77.128906 99.28125 49.976562 C 99.28125 22.824219 77.269531 0.8125 50.117188 0.8125 Z M 50.117188 0.8125 " clip-rule="nonzero"/></clipPath><clipPath id="c0c11e8b85"><rect x="0" width="100" y="0" height="100"/></clipPath><clipPath id="23e73147d9"><path d="M 835.257812 1438.8125 L 933.585938 1438.8125 L 933.585938 1537.140625 L 835.257812 1537.140625 Z M 835.257812 1438.8125 " clip-rule="nonzero"/></clipPath><clipPath id="4f37136483"><path d="M 884.421875 1438.8125 C 857.269531 1438.8125 835.257812 1460.824219 835.257812 1487.976562 C 835.257812 1515.128906 857.269531 1537.140625 884.421875 1537.140625 C 911.574219 1537.140625 933.585938 1515.128906 933.585938 1487.976562 C 933.585938 1460.824219 911.574219 1438.8125 884.421875 1438.8125 Z M 884.421875 1438.8125 " clip-rule="nonzero"/></clipPath><clipPath id="8a0d0641fd"><path d="M 0.257812 0.8125 L 98.585938 0.8125 L 98.585938 99.140625 L 0.257812 99.140625 Z M 0.257812 0.8125 " clip-rule="nonzero"/></clipPath><clipPath id="bd18cb2508"><path d="M 49.421875 0.8125 C 22.269531 0.8125 0.257812 22.824219 0.257812 49.976562 C 0.257812 77.128906 22.269531 99.140625 49.421875 99.140625 C 76.574219 99.140625 98.585938 77.128906 98.585938 49.976562 C 98.585938 22.824219 76.574219 0.8125 49.421875 0.8125 Z M 49.421875 0.8125 " clip-rule="nonzero"/></clipPath><clipPath id="16addfe6ca"><rect x="0" width="99" y="0" height="100"/></clipPath><clipPath id="d9cdf2ef07"><path d="M 588.5625 1438.8125 L 686.894531 1438.8125 L 686.894531 1537.140625 L 588.5625 1537.140625 Z M 588.5625 1438.8125 " clip-rule="nonzero"/></clipPath><clipPath id="3291206319"><path d="M 637.730469 1438.8125 C 610.574219 1438.8125 588.5625 1460.824219 588.5625 1487.976562 C 588.5625 1515.128906 610.574219 1537.140625 637.730469 1537.140625 C 664.882812 1537.140625 686.894531 1515.128906 686.894531 1487.976562 C 686.894531 1460.824219 664.882812 1438.8125 637.730469 1438.8125 Z M 637.730469 1438.8125 " clip-rule="nonzero"/></clipPath><clipPath id="542b0ddff8"><path d="M 0.5625 0.8125 L 98.894531 0.8125 L 98.894531 99.140625 L 0.5625 99.140625 Z M 0.5625 0.8125 " clip-rule="nonzero"/></clipPath><clipPath id="1194ed63f5"><path d="M 49.730469 0.8125 C 22.574219 0.8125 0.5625 22.824219 0.5625 49.976562 C 0.5625 77.128906 22.574219 99.140625 49.730469 99.140625 C 76.882812 99.140625 98.894531 77.128906 98.894531 49.976562 C 98.894531 22.824219 76.882812 0.8125 49.730469 0.8125 Z M 49.730469 0.8125 " clip-rule="nonzero"/></clipPath><clipPath id="6bbfa3d75b"><rect x="0" width="99" y="0" height="100"/></clipPath></defs><g fill="#92e5bd" fill-opacity="1"><g transform="translate(319.718589, 1293.763486)"><g><path d="M 472.609375 15.453125 C 391.140625 15.453125 321.570312 -6.875 263.90625 -51.53125 C 206.238281 -96.1875 161.945312 -160.472656 131.03125 -244.390625 C 100.113281 -328.316406 84.65625 -429.421875 84.65625 -547.703125 C 84.65625 -665.972656 100.113281 -767.066406 131.03125 -850.984375 C 161.945312 -934.910156 206.359375 -999.445312 264.265625 -1044.59375 C 322.179688 -1089.75 391.628906 -1112.328125 472.609375 -1112.328125 C 553.585938 -1112.328125 623.15625 -1089.75 681.3125 -1044.59375 C 739.46875 -999.445312 783.878906 -934.910156 814.546875 -850.984375 C 845.222656 -767.066406 860.5625 -665.972656 860.5625 -547.703125 C 860.5625 -429.910156 845.222656 -328.929688 814.546875 -244.765625 C 783.878906 -160.597656 739.710938 -96.1875 682.046875 -51.53125 C 624.378906 -6.875 554.566406 15.453125 472.609375 15.453125 Z M 472.609375 -106 C 526.597656 -106 572.609375 -123.546875 610.640625 -158.640625 C 648.671875 -193.734375 677.75 -244.160156 697.875 -309.921875 C 718 -375.679688 728.0625 -454.941406 728.0625 -547.703125 C 728.0625 -640.941406 718 -720.6875 697.875 -786.9375 C 677.75 -853.195312 648.671875 -903.867188 610.640625 -938.953125 C 572.609375 -974.046875 526.597656 -991.59375 472.609375 -991.59375 C 418.628906 -991.59375 372.617188 -973.925781 334.578125 -938.59375 C 296.546875 -903.257812 267.46875 -852.585938 247.34375 -786.578125 C 227.226562 -720.566406 217.171875 -640.941406 217.171875 -547.703125 C 217.171875 -454.941406 227.226562 -375.679688 247.34375 -309.921875 C 267.46875 -244.160156 296.546875 -193.734375 334.578125 -158.640625 C 372.617188 -123.546875 418.628906 -106 472.609375 -106 Z M 472.609375 -106 "/></g></g></g><g clip-path="url(#cc19a661ef)"><g clip-path="url(#d05168ebd5)"><g transform="matrix(1, 0, 0, 1, 379, 1438)"><g clip-path="url(#5d38175118)"><g clip-path="url(#86c0878df2)"><g clip-path="url(#2c9d67bca3)"><path fill="#92e5bd" d="M 0.5 0.8125 L 98.832031 0.8125 L 98.832031 99.140625 L 0.5 99.140625 Z M 0.5 0.8125 " fill-opacity="1" fill-rule="nonzero"/></g></g></g></g></g></g><g clip-path="url(#aab1cdd76e)"><g clip-path="url(#5cefadb047)"><g transform="matrix(1, 0, 0, 1, 1081, 1438)"><g clip-path="url(#c0c11e8b85)"><g clip-path="url(#73e6ca5983)"><g clip-path="url(#9775fa38c2)"><path fill="#92e5bd" d="M 0.953125 0.8125 L 99.28125 0.8125 L 99.28125 99.140625 L 0.953125 99.140625 Z M 0.953125 0.8125 " fill-opacity="1" fill-rule="nonzero"/></g></g></g></g></g></g><g clip-path="url(#23e73147d9)"><g clip-path="url(#4f37136483)"><g transform="matrix(1, 0, 0, 1, 835, 1438)"><g clip-path="url(#16addfe6ca)"><g clip-path="url(#8a0d0641fd)"><g clip-path="url(#bd18cb2508)"><path fill="#92e5bd" d="M 0.257812 0.8125 L 98.585938 0.8125 L 98.585938 99.140625 L 0.257812 99.140625 Z M 0.257812 0.8125 " fill-opacity="1" fill-rule="nonzero"/></g></g></g></g></g></g><g clip-path="url(#d9cdf2ef07)"><g clip-path="url(#3291206319)"><g transform="matrix(1, 0, 0, 1, 588, 1438)"><g clip-path="url(#6bbfa3d75b)"><g clip-path="url(#542b0ddff8)"><g clip-path="url(#1194ed63f5)"><path fill="#92e5bd" d="M 0.5625 0.8125 L 98.894531 0.8125 L 98.894531 99.140625 L 0.5625 99.140625 Z M 0.5625 0.8125 " fill-opacity="1" fill-rule="nonzero"/></g></g></g></g></g></g></svg>