<svg xmlns="http://www.w3.org/2000/svg" xmlns:xlink="http://www.w3.org/1999/xlink" width="3000" zoomAndPan="magnify" viewBox="0 0 2250 1499.999933" height="2000" preserveAspectRatio="xMidYMid meet" version="1.0"><defs><g/></defs><g fill="#0e0e0e" fill-opacity="1"><g transform="translate(307.919524, 739.718091)"><g><path d="M 20.34375 -369.25 L 20.34375 -445.84375 L 384.203125 -445.84375 L 384.203125 -369.25 L 248.359375 -369.25 L 248.359375 0 L 156.796875 0 L 156.796875 -369.25 Z M 20.34375 -369.25 "/></g></g></g><g fill="#0e0e0e" fill-opacity="1"><g transform="translate(711.447825, 739.718091)"><g><path d="M 177.140625 0 L 177.140625 -167.5625 L 11.96875 -445.84375 L 118.796875 -445.84375 L 194.203125 -307.90625 C 201.578125 -294.34375 208.351562 -280.875 214.53125 -267.5 C 220.71875 -254.132812 227.003906 -238.675781 233.390625 -221.125 L 213.34375 -221.125 C 219.53125 -238.882812 225.566406 -254.492188 231.453125 -267.953125 C 237.335938 -281.421875 243.867188 -294.738281 251.046875 -307.90625 L 324.0625 -445.84375 L 430.28125 -445.84375 L 267.8125 -167.5625 L 267.8125 0 Z M 177.140625 0 "/></g></g></g><g fill="#0e0e0e" fill-opacity="1"><g transform="translate(1148.190359, 739.718091)"><g><path d="M 38.59375 0 L 38.59375 -445.84375 L 213.046875 -445.84375 C 246.753906 -445.84375 275.578125 -439.507812 299.515625 -426.84375 C 323.460938 -414.175781 341.769531 -396.617188 354.4375 -374.171875 C 367.101562 -351.734375 373.4375 -325.753906 373.4375 -296.234375 C 373.4375 -266.710938 367 -240.78125 354.125 -218.4375 C 341.257812 -196.09375 322.757812 -178.632812 298.625 -166.0625 C 274.488281 -153.5 245.363281 -147.21875 211.25 -147.21875 L 96.65625 -147.21875 L 96.65625 -221.71875 L 198.984375 -221.71875 C 216.941406 -221.71875 231.953125 -224.859375 244.015625 -231.140625 C 256.085938 -237.429688 265.113281 -246.160156 271.09375 -257.328125 C 277.082031 -268.503906 280.078125 -281.472656 280.078125 -296.234375 C 280.078125 -311.191406 277.082031 -324.15625 271.09375 -335.125 C 265.113281 -346.101562 256.085938 -354.679688 244.015625 -360.859375 C 231.953125 -367.046875 216.84375 -370.140625 198.6875 -370.140625 L 130.15625 -370.140625 L 130.15625 0 Z M 38.59375 0 "/></g></g></g><g fill="#0e0e0e" fill-opacity="1"><g transform="translate(1537.655013, 739.718091)"><g><path d="M 204.96875 6.28125 C 167.46875 6.28125 135.398438 -2.84375 108.765625 -21.09375 C 82.140625 -39.34375 61.691406 -65.472656 47.421875 -99.484375 C 33.160156 -133.503906 26.03125 -174.550781 26.03125 -222.625 C 26.03125 -270.695312 33.160156 -311.835938 47.421875 -346.046875 C 61.691406 -380.265625 82.140625 -406.5 108.765625 -424.75 C 135.398438 -443 167.46875 -452.125 204.96875 -452.125 C 242.46875 -452.125 274.582031 -442.945312 301.3125 -424.59375 C 328.050781 -406.25 348.5 -380.019531 362.65625 -345.90625 C 376.820312 -311.789062 383.90625 -270.695312 383.90625 -222.625 C 383.90625 -174.550781 376.820312 -133.457031 362.65625 -99.34375 C 348.5 -65.226562 328.101562 -39.09375 301.46875 -20.9375 C 274.832031 -2.789062 242.664062 6.28125 204.96875 6.28125 Z M 204.96875 -69.125 C 223.519531 -69.125 239.28125 -75.15625 252.25 -87.21875 C 265.21875 -99.289062 275.09375 -116.742188 281.875 -139.578125 C 288.65625 -162.421875 292.046875 -190.101562 292.046875 -222.625 C 292.046875 -255.34375 288.65625 -283.171875 281.875 -306.109375 C 275.09375 -329.046875 265.21875 -346.597656 252.25 -358.765625 C 239.28125 -370.929688 223.519531 -377.015625 204.96875 -377.015625 C 186.414062 -377.015625 170.65625 -370.929688 157.6875 -358.765625 C 144.71875 -346.597656 134.789062 -329.046875 127.90625 -306.109375 C 121.03125 -283.171875 117.59375 -255.34375 117.59375 -222.625 C 117.59375 -190.101562 120.984375 -162.421875 127.765625 -139.578125 C 134.546875 -116.742188 144.46875 -99.289062 157.53125 -87.21875 C 170.601562 -75.15625 186.414062 -69.125 204.96875 -69.125 Z M 204.96875 -69.125 "/></g></g></g><g fill="#92e5bd" fill-opacity="1"><g transform="translate(696.077923, 1032.258374)"><g><path d="M 94.53125 -1.4375 C 79.519531 -0.59375 66.070312 -2.039062 54.1875 -5.78125 C 42.3125 -9.53125 32.492188 -15.378906 24.734375 -23.328125 C 16.972656 -31.273438 11.820312 -41.035156 9.28125 -52.609375 L 55.828125 -61.578125 C 58.429688 -53.234375 62.851562 -47.0625 69.09375 -43.0625 C 75.34375 -39.0625 83.476562 -37.335938 93.5 -37.890625 C 102.957031 -38.421875 110.3125 -40.644531 115.5625 -44.5625 C 120.820312 -48.488281 123.296875 -53.238281 122.984375 -58.8125 C 122.710938 -63.59375 120.515625 -67.398438 116.390625 -70.234375 C 112.273438 -73.066406 106.21875 -75.101562 98.21875 -76.34375 L 65.96875 -80.890625 C 47.96875 -83.578125 34.265625 -89.0625 24.859375 -97.34375 C 15.460938 -105.632812 10.378906 -116.738281 9.609375 -130.65625 C 8.953125 -142.34375 11.582031 -152.648438 17.5 -161.578125 C 23.425781 -170.515625 32.070312 -177.644531 43.4375 -182.96875 C 54.800781 -188.289062 68.269531 -191.390625 83.84375 -192.265625 C 98.757812 -193.097656 111.789062 -191.703125 122.9375 -188.078125 C 134.09375 -184.460938 143.195312 -178.941406 150.25 -171.515625 C 157.3125 -164.097656 162.03125 -155.15625 164.40625 -144.6875 L 120.15625 -136.015625 C 118.238281 -142.492188 114.460938 -147.671875 108.828125 -151.546875 C 103.191406 -155.421875 95.867188 -157.101562 86.859375 -156.59375 C 78.515625 -156.132812 71.738281 -154 66.53125 -150.1875 C 61.332031 -146.375 58.890625 -141.6875 59.203125 -136.125 C 59.460938 -131.445312 61.515625 -127.625 65.359375 -124.65625 C 69.210938 -121.6875 75.363281 -119.601562 83.8125 -118.40625 L 117.578125 -113.578125 C 135.804688 -111.035156 149.519531 -105.890625 158.71875 -98.140625 C 167.914062 -90.390625 172.882812 -79.894531 173.625 -66.65625 C 174.300781 -54.519531 171.382812 -43.722656 164.875 -34.265625 C 158.375 -24.804688 149.0625 -17.191406 136.9375 -11.421875 C 124.8125 -5.660156 110.675781 -2.332031 94.53125 -1.4375 Z M 94.53125 -1.4375 "/></g></g></g><g fill="#92e5bd" fill-opacity="1"><g transform="translate(963.190674, 1017.309642)"><g><path d="M 104.703125 -190.75 L 106.84375 -152.515625 L -5 -146.25 L -7.140625 -184.484375 Z M 17.203125 -231.25 L 66.953125 -234.03125 L 76.75 -59.0625 C 77.070312 -53.15625 78.613281 -48.910156 81.375 -46.328125 C 84.144531 -43.753906 88.59375 -42.640625 94.71875 -42.984375 C 96.945312 -43.109375 99.800781 -43.460938 103.28125 -44.046875 C 106.769531 -44.628906 109.457031 -45.144531 111.34375 -45.59375 L 118.953125 -8 C 114.023438 -6.488281 108.84375 -5.332031 103.40625 -4.53125 C 97.976562 -3.726562 92.707031 -3.179688 87.59375 -2.890625 C 68.664062 -1.835938 54.113281 -5.410156 43.9375 -13.609375 C 33.769531 -21.804688 28.21875 -34.304688 27.28125 -51.109375 Z M 17.203125 -231.25 "/></g></g></g><g fill="#92e5bd" fill-opacity="1"><g transform="translate(1163.356152, 1006.107556)"><g><path d="M 104.21875 -2.140625 C 85.40625 -1.085938 68.960938 -4.078125 54.890625 -11.109375 C 40.816406 -18.140625 29.679688 -28.566406 21.484375 -42.390625 C 13.285156 -56.222656 8.648438 -72.769531 7.578125 -92.03125 C 6.515625 -111.0625 9.253906 -127.929688 15.796875 -142.640625 C 22.347656 -157.359375 32.070312 -169.125 44.96875 -177.9375 C 57.863281 -186.757812 73.273438 -191.671875 91.203125 -192.671875 C 103.554688 -193.359375 115.132812 -191.992188 125.9375 -188.578125 C 136.75 -185.160156 146.347656 -179.753906 154.734375 -172.359375 C 163.128906 -164.960938 169.851562 -155.515625 174.90625 -144.015625 C 179.957031 -132.515625 182.910156 -119.09375 183.765625 -103.75 L 184.546875 -89.875 L 28.125 -81.125 L 26.375 -112.515625 L 158.59375 -119.90625 L 135.84375 -110.4375 C 135.3125 -120 133.34375 -128.203125 129.9375 -135.046875 C 126.539062 -141.898438 121.8125 -147.082031 115.75 -150.59375 C 109.6875 -154.101562 102.375 -155.617188 93.8125 -155.140625 C 85.238281 -154.660156 78.054688 -152.300781 72.265625 -148.0625 C 66.484375 -143.832031 62.195312 -138.234375 59.40625 -131.265625 C 56.613281 -124.296875 55.460938 -116.421875 55.953125 -107.640625 L 57.1875 -85.59375 C 57.757812 -75.238281 60.03125 -66.539062 64 -59.5 C 67.96875 -52.46875 73.3125 -47.269531 80.03125 -43.90625 C 86.75 -40.550781 94.441406 -39.117188 103.109375 -39.609375 C 109.023438 -39.941406 114.351562 -41.101562 119.09375 -43.09375 C 123.84375 -45.082031 127.816406 -47.8125 131.015625 -51.28125 C 134.222656 -54.757812 136.59375 -58.941406 138.125 -63.828125 L 183.71875 -59.859375 C 181.425781 -49.003906 176.742188 -39.390625 169.671875 -31.015625 C 162.609375 -22.640625 153.546875 -15.9375 142.484375 -10.90625 C 131.429688 -5.875 118.675781 -2.953125 104.21875 -2.140625 Z M 104.21875 -2.140625 "/></g></g></g><g fill="#92e5bd" fill-opacity="1"><g transform="translate(1442.322413, 990.495453)"><g><path d="M 104.703125 -190.75 L 106.84375 -152.515625 L -5 -146.25 L -7.140625 -184.484375 Z M 17.203125 -231.25 L 66.953125 -234.03125 L 76.75 -59.0625 C 77.070312 -53.15625 78.613281 -48.910156 81.375 -46.328125 C 84.144531 -43.753906 88.59375 -42.640625 94.71875 -42.984375 C 96.945312 -43.109375 99.800781 -43.460938 103.28125 -44.046875 C 106.769531 -44.628906 109.457031 -45.144531 111.34375 -45.59375 L 118.953125 -8 C 114.023438 -6.488281 108.84375 -5.332031 103.40625 -4.53125 C 97.976562 -3.726562 92.707031 -3.179688 87.59375 -2.890625 C 68.664062 -1.835938 54.113281 -5.410156 43.9375 -13.609375 C 33.769531 -21.804688 28.21875 -34.304688 27.28125 -51.109375 Z M 17.203125 -231.25 "/></g></g></g></svg>