<svg xmlns="http://www.w3.org/2000/svg" xmlns:xlink="http://www.w3.org/1999/xlink" width="3000" zoomAndPan="magnify" viewBox="0 0 2250 1499.999933" height="2000" preserveAspectRatio="xMidYMid meet" version="1.0"><defs><g/></defs><g fill="#0e0e0e" fill-opacity="1"><g transform="translate(448.722659, 718.718121)"><g><path d="M 403.84375 -355.4375 C 404.25 -353.800781 404.453125 -351.753906 404.453125 -349.296875 C 404.453125 -343.992188 402.003906 -340.113281 397.109375 -337.65625 C 394.648438 -336.84375 389.847656 -335.3125 382.703125 -333.0625 C 375.554688 -330.8125 369.734375 -329.6875 365.234375 -329.6875 C 361.554688 -329.6875 358.695312 -330.097656 356.65625 -330.921875 C 352.570312 -334.597656 347.671875 -337.253906 341.953125 -338.890625 C 336.234375 -340.523438 324.382812 -341.953125 306.40625 -343.171875 C 301.09375 -342.359375 296.394531 -341.953125 292.3125 -341.953125 C 288.226562 -341.953125 284.957031 -341.75 282.5 -341.34375 C 279.238281 -330.71875 275.15625 -320.707031 270.25 -311.3125 C 268.613281 -303.550781 266.367188 -296.601562 263.515625 -290.46875 C 260.648438 -282.300781 259.421875 -277.601562 259.828125 -276.375 C 258.609375 -274.738281 254.726562 -264.421875 248.1875 -245.421875 C 241.65625 -226.429688 235.53125 -207.945312 229.8125 -189.96875 C 225.71875 -177.300781 222.648438 -168.109375 220.609375 -162.390625 C 218.566406 -158.304688 216.015625 -151.875 212.953125 -143.09375 C 209.890625 -134.3125 207.742188 -128.082031 206.515625 -124.40625 L 191.203125 -82.109375 C 187.929688 -75.984375 183.945312 -66.28125 179.25 -53 C 174.550781 -39.726562 170.769531 -27.78125 167.90625 -17.15625 C 163.414062 -1.226562 159.429688 10.207031 155.953125 17.15625 C 152.484375 24.101562 149.519531 28.394531 147.0625 30.03125 C 144.613281 31.664062 141.144531 32.484375 136.65625 32.484375 C 130.125 32.484375 124.40625 29.210938 119.5 22.671875 C 114.59375 16.140625 112.140625 10.015625 112.140625 4.296875 C 112.140625 -4.691406 115.304688 -19.804688 121.640625 -41.046875 C 127.972656 -62.296875 134 -79.253906 139.71875 -91.921875 C 141.351562 -99.273438 142.882812 -105.195312 144.3125 -109.6875 C 145.75 -114.1875 146.671875 -117.457031 147.078125 -119.5 C 148.296875 -121.132812 150.234375 -125.523438 152.890625 -132.671875 C 155.546875 -139.816406 157.691406 -146.457031 159.328125 -152.59375 C 160.554688 -159.945312 173.222656 -201.003906 197.328125 -275.765625 L 201.609375 -288.640625 C 205.285156 -294.765625 208.757812 -302.523438 212.03125 -311.921875 C 215.300781 -313.960938 216.9375 -318.253906 216.9375 -324.796875 C 216.9375 -326.015625 217.648438 -327.644531 219.078125 -329.6875 C 220.503906 -331.726562 221.21875 -333.160156 221.21875 -333.984375 C 221.632812 -334.390625 222.25 -334.59375 223.0625 -334.59375 C 223.46875 -334.59375 223.976562 -334.488281 224.59375 -334.28125 C 225.207031 -334.082031 226.332031 -334.800781 227.96875 -336.4375 L 227.359375 -336.4375 L 197.328125 -333.375 L 183.84375 -332.140625 C 159.738281 -330.097656 146.050781 -328.671875 142.78125 -327.859375 L 134.203125 -327.234375 C 121.535156 -327.234375 112.648438 -329.785156 107.546875 -334.890625 C 102.441406 -340.003906 100.707031 -345.832031 102.34375 -352.375 C 103.5625 -357.675781 106.722656 -361.960938 111.828125 -365.234375 C 116.941406 -368.503906 125.421875 -371.363281 137.265625 -373.8125 C 140.941406 -374.632812 148.09375 -375.863281 158.71875 -377.5 L 175.265625 -380.5625 L 196.09375 -383.015625 C 219.789062 -386.679688 244.914062 -389.128906 271.46875 -390.359375 C 282.5 -390.765625 291.796875 -391.273438 299.359375 -391.890625 C 306.921875 -392.503906 311.925781 -393.015625 314.375 -393.421875 C 320.09375 -393.015625 329.382812 -391.992188 342.25 -390.359375 C 355.125 -388.722656 364.421875 -386.882812 370.140625 -384.84375 C 379.128906 -382.800781 386.484375 -379.125 392.203125 -373.8125 C 397.921875 -368.5 401.800781 -362.375 403.84375 -355.4375 Z M 403.84375 -355.4375 "/></g></g></g><g fill="#0e0e0e" fill-opacity="1"><g transform="translate(723.877236, 718.718121)"><g><path d="M 417.328125 -383.015625 C 418.140625 -381.378906 419.972656 -378.925781 422.828125 -375.65625 C 425.691406 -372.382812 426.921875 -369.726562 426.515625 -367.6875 C 426.109375 -364.820312 417.328125 -354.8125 400.171875 -337.65625 C 391.179688 -329.894531 376.878906 -315.800781 357.265625 -295.375 C 337.660156 -274.945312 322.140625 -257.582031 310.703125 -243.28125 C 294.359375 -224.488281 279.441406 -207.84375 265.953125 -193.34375 C 252.472656 -178.84375 242.671875 -168.523438 236.546875 -162.390625 C 236.546875 -161.984375 236.238281 -161.78125 235.625 -161.78125 C 235.007812 -161.78125 234.5 -161.578125 234.09375 -161.171875 C 232.863281 -157.492188 229.390625 -144.007812 223.671875 -120.71875 L 211.421875 -80.890625 C 209.378906 -74.765625 206.519531 -65.0625 202.84375 -51.78125 C 199.164062 -38.5 196.101562 -28.796875 193.65625 -22.671875 C 186.300781 5.105469 179.96875 24.101562 174.65625 34.3125 C 169.34375 44.53125 163.828125 48.617188 158.109375 46.578125 C 155.648438 46.171875 147.679688 41.265625 134.203125 31.859375 C 130.523438 27.773438 128.6875 23.488281 128.6875 19 C 128.6875 15.320312 130.320312 7.554688 133.59375 -4.296875 L 137.265625 -19 C 137.679688 -28.800781 139.625 -40.441406 143.09375 -53.921875 C 146.5625 -67.410156 150.75 -78.441406 155.65625 -87.015625 C 155.65625 -93.148438 157.695312 -102.648438 161.78125 -115.515625 C 165.863281 -128.378906 170.15625 -140.328125 174.65625 -151.359375 L 182 -172.203125 L 170.96875 -185.6875 C 161.988281 -199.164062 155.25 -211.113281 150.75 -221.53125 C 146.257812 -231.945312 142.992188 -244.507812 140.953125 -259.21875 C 136.453125 -275.5625 134.203125 -292.722656 134.203125 -310.703125 C 134.203125 -316.421875 134.613281 -332.351562 135.4375 -358.5 C 135.84375 -376.0625 138.597656 -389.847656 143.703125 -399.859375 C 148.804688 -409.867188 151.566406 -415.488281 151.984375 -416.71875 C 156.472656 -420.800781 161.171875 -422.84375 166.078125 -422.84375 C 173.429688 -422.84375 179.148438 -416.914062 183.234375 -405.0625 C 187.316406 -393.21875 189.15625 -379.738281 188.75 -364.625 C 191.195312 -282.09375 199.367188 -235.109375 213.265625 -223.671875 C 214.484375 -223.265625 216.320312 -223.0625 218.78125 -223.0625 C 222.457031 -223.0625 226.03125 -224.488281 229.5 -227.34375 C 232.96875 -230.207031 238.582031 -235.929688 246.34375 -244.515625 C 256.15625 -255.546875 262.488281 -262.488281 265.34375 -265.34375 C 275.15625 -275.15625 286.1875 -287.109375 298.4375 -301.203125 C 310.695312 -315.296875 319.273438 -325.203125 324.171875 -330.921875 C 352.773438 -365.648438 371.570312 -385.664062 380.5625 -390.96875 C 382.195312 -394.238281 386.382812 -397 393.125 -399.25 C 399.863281 -401.5 404.457031 -402.828125 406.90625 -403.234375 C 408.539062 -402.828125 409.765625 -401.703125 410.578125 -399.859375 C 411.398438 -398.023438 412.320312 -395.367188 413.34375 -391.890625 C 414.363281 -388.421875 415.691406 -385.460938 417.328125 -383.015625 Z M 417.328125 -383.015625 "/></g></g></g><g fill="#0e0e0e" fill-opacity="1"><g transform="translate(1021.093225, 718.718121)"><g><path d="M 72.921875 34.9375 C 70.878906 34.9375 68.734375 34.21875 66.484375 32.78125 C 64.242188 31.351562 62.304688 29.414062 60.671875 26.96875 C 57.398438 24.101562 54.742188 20.628906 52.703125 16.546875 C 50.660156 12.460938 49.640625 6.332031 49.640625 -1.84375 C 49.640625 -16.132812 54.132812 -36.765625 63.125 -63.734375 C 65.976562 -75.171875 69.039062 -86.203125 72.3125 -96.828125 C 75.175781 -104.179688 76.609375 -109.695312 76.609375 -113.375 C 76.609375 -116.632812 77.117188 -120.410156 78.140625 -124.703125 C 79.160156 -128.992188 79.671875 -131.957031 79.671875 -133.59375 C 84.566406 -133.59375 89.054688 -141.96875 93.140625 -158.71875 C 94.773438 -164.84375 96.207031 -170.050781 97.4375 -174.34375 C 98.664062 -178.632812 99.484375 -182.003906 99.890625 -184.453125 C 100.703125 -185.679688 101.617188 -187.519531 102.640625 -189.96875 C 103.660156 -192.425781 104.582031 -194.675781 105.40625 -196.71875 C 108.675781 -206.519531 112.554688 -215.914062 117.046875 -224.90625 C 121.953125 -243.289062 127.773438 -262.59375 134.515625 -282.8125 C 141.253906 -303.03125 146.867188 -318.046875 151.359375 -327.859375 L 158.71875 -346.234375 C 159.125 -347.460938 160.039062 -349.8125 161.46875 -353.28125 C 162.90625 -356.757812 163.625 -359.3125 163.625 -360.9375 C 163.625 -362.570312 163.007812 -363.800781 161.78125 -364.625 C 158.925781 -366.664062 157.5 -370.75 157.5 -376.875 C 157.5 -387.09375 161.378906 -395.46875 169.140625 -402 C 173.628906 -407.3125 179.648438 -411.09375 187.203125 -413.34375 C 194.765625 -415.59375 203.859375 -416.71875 214.484375 -416.71875 C 218.972656 -416.71875 226.941406 -416.304688 238.390625 -415.484375 C 243.285156 -415.078125 256.359375 -414.875 277.609375 -414.875 C 280.054688 -413.644531 284.550781 -411.804688 291.09375 -409.359375 C 304.976562 -403.640625 311.921875 -400.164062 311.921875 -398.9375 C 311.921875 -396.894531 312.632812 -395.460938 314.0625 -394.640625 C 315.5 -393.828125 317.644531 -393.21875 320.5 -392.8125 C 324.988281 -392.8125 333.054688 -387.296875 344.703125 -376.265625 C 356.347656 -365.234375 364.414062 -355.019531 368.90625 -345.625 C 372.582031 -338.269531 375.132812 -332.550781 376.5625 -328.46875 C 378 -324.382812 378.71875 -319.273438 378.71875 -313.140625 C 378.71875 -310.691406 378.3125 -306.203125 377.5 -299.671875 C 376.675781 -293.128906 375.648438 -286.789062 374.421875 -280.65625 C 373.203125 -274.53125 371.773438 -270.65625 370.140625 -269.03125 C 363.597656 -264.125 360.328125 -259.832031 360.328125 -256.15625 C 360.328125 -252.070312 354.40625 -240.632812 342.5625 -221.84375 C 330.71875 -203.050781 320.300781 -189.363281 311.3125 -180.78125 C 300.6875 -168.519531 288.019531 -157.691406 273.3125 -148.296875 C 256.15625 -140.535156 236.851562 -133.796875 215.40625 -128.078125 C 193.957031 -122.359375 177.71875 -119.703125 166.6875 -120.109375 C 153.613281 -118.066406 145.546875 -116.328125 142.484375 -114.890625 C 139.421875 -113.460938 137.070312 -110.097656 135.4375 -104.796875 C 133.394531 -99.078125 131.453125 -93.351562 129.609375 -87.625 C 127.773438 -81.90625 126.859375 -78.023438 126.859375 -75.984375 C 124.398438 -71.492188 119.390625 -57.804688 111.828125 -34.921875 C 104.273438 -12.046875 99.070312 5.515625 96.21875 17.765625 C 94.582031 23.078125 91.3125 27.265625 86.40625 30.328125 C 81.5 33.398438 77.003906 34.9375 72.921875 34.9375 Z M 159.9375 -169.75 C 160.757812 -168.9375 163.007812 -168.53125 166.6875 -168.53125 C 177.3125 -168.53125 191.203125 -171.796875 208.359375 -178.328125 C 223.066406 -183.234375 239.40625 -191.203125 257.375 -202.234375 C 266.363281 -208.359375 276.988281 -219.179688 289.25 -234.703125 C 291.695312 -238.785156 296.597656 -248.390625 303.953125 -263.515625 C 307.222656 -269.234375 310.390625 -276.582031 313.453125 -285.5625 C 316.515625 -294.550781 318.046875 -302.519531 318.046875 -309.46875 C 318.046875 -312.738281 317.84375 -315.191406 317.4375 -316.828125 C 313.351562 -338.066406 301.503906 -352.160156 281.890625 -359.109375 C 268.816406 -361.148438 259.625 -362.171875 254.3125 -362.171875 C 251.457031 -362.171875 246.757812 -361.765625 240.21875 -360.953125 C 233.6875 -358.898438 229.09375 -356.140625 226.4375 -352.671875 C 223.78125 -349.203125 220 -341.335938 215.09375 -329.078125 C 202.019531 -304.160156 193.441406 -286.1875 189.359375 -275.15625 C 181.597656 -247.375 174.859375 -226.023438 169.140625 -211.109375 C 163.421875 -196.203125 160.148438 -187.519531 159.328125 -185.0625 L 159.328125 -182.625 C 159.328125 -180.164062 159.125 -177.710938 158.71875 -175.265625 C 158.3125 -172.816406 158.71875 -170.976562 159.9375 -169.75 Z M 159.9375 -169.75 "/></g></g></g><g fill="#0e0e0e" fill-opacity="1"><g transform="translate(1304.827163, 718.718121)"><g><path d="M 179.546875 -1.84375 C 174.242188 -1.84375 164.75 -4.085938 151.0625 -8.578125 C 137.375 -13.078125 127.671875 -17.773438 121.953125 -22.671875 C 94.171875 -46.367188 80.28125 -78.644531 80.28125 -119.5 C 80.28125 -127.257812 81.097656 -137.269531 82.734375 -149.53125 C 87.222656 -175.675781 96.71875 -201.71875 111.21875 -227.65625 C 125.726562 -253.601562 142.785156 -275.15625 162.390625 -292.3125 C 184.859375 -312.332031 206.921875 -325 228.578125 -330.3125 C 234.296875 -331.9375 246.347656 -332.75 264.734375 -332.75 C 272.492188 -332.75 281.476562 -331.015625 291.6875 -327.546875 C 301.90625 -324.078125 310.691406 -319.992188 318.046875 -315.296875 C 325.398438 -310.597656 329.078125 -306.203125 329.078125 -302.109375 C 329.078125 -298.023438 328.769531 -294.960938 328.15625 -292.921875 C 327.539062 -290.878906 325.804688 -290.472656 322.953125 -291.703125 L 316.828125 -291.703125 L 322.953125 -273.3125 C 324.585938 -269.632812 326.015625 -265.140625 327.234375 -259.828125 C 328.460938 -254.515625 329.078125 -249.613281 329.078125 -245.125 C 329.078125 -236.957031 327.035156 -222.453125 322.953125 -201.609375 C 318.867188 -180.773438 315.394531 -166.679688 312.53125 -159.328125 C 310.894531 -156.054688 310.078125 -151.769531 310.078125 -146.46875 C 308.441406 -143.601562 305.175781 -136.453125 300.28125 -125.015625 L 294.15625 -112.140625 C 292.519531 -110.921875 291.289062 -109.492188 290.46875 -107.859375 C 289.65625 -106.222656 289.863281 -104.789062 291.09375 -103.5625 C 291.09375 -101.519531 289.046875 -96.71875 284.953125 -89.15625 C 280.867188 -81.601562 278.007812 -77.828125 276.375 -77.828125 C 275.96875 -77.828125 275.351562 -77.722656 274.53125 -77.515625 C 273.71875 -77.316406 273.3125 -76.601562 273.3125 -75.375 C 273.3125 -73.738281 270.453125 -69.34375 264.734375 -62.1875 C 259.015625 -55.039062 252.679688 -48 245.734375 -41.0625 C 239.203125 -34.113281 228.070312 -25.835938 212.34375 -16.234375 C 196.613281 -6.640625 185.679688 -1.84375 179.546875 -1.84375 Z M 178.328125 -60.671875 C 188.128906 -60.671875 195.890625 -63.53125 201.609375 -69.25 C 217.953125 -80.28125 230.617188 -96.210938 239.609375 -117.046875 C 243.691406 -122.765625 247.0625 -128.6875 249.71875 -134.8125 C 252.375 -140.945312 256.765625 -153 262.890625 -170.96875 C 265.753906 -175.0625 267.898438 -180.269531 269.328125 -186.59375 C 270.753906 -192.925781 271.46875 -198.75 271.46875 -204.0625 C 271.46875 -222.039062 272.492188 -234.707031 274.546875 -242.0625 C 274.546875 -252.6875 274.335938 -258.8125 273.921875 -260.4375 C 273.515625 -262.070312 271.882812 -264.726562 269.03125 -268.40625 C 264.53125 -272.082031 259.625 -273.921875 254.3125 -273.921875 C 251.050781 -273.921875 247.066406 -273.207031 242.359375 -271.78125 C 237.660156 -270.351562 233.882812 -268.617188 231.03125 -266.578125 C 228.582031 -265.753906 226.742188 -265.34375 225.515625 -265.34375 C 223.066406 -265.34375 220.921875 -265.851562 219.078125 -266.875 C 217.242188 -267.894531 216.328125 -269.222656 216.328125 -270.859375 C 216.328125 -275.765625 214.179688 -276.070312 209.890625 -271.78125 C 205.597656 -267.488281 197.734375 -258.195312 186.296875 -243.90625 C 179.753906 -237.363281 173.722656 -230.109375 168.203125 -222.140625 C 162.691406 -214.171875 159.9375 -209.375 159.9375 -207.75 C 159.9375 -206.519531 159.222656 -204.269531 157.796875 -201 C 156.367188 -197.726562 155.242188 -195.070312 154.421875 -193.03125 C 151.566406 -188.539062 147.6875 -180.675781 142.78125 -169.4375 C 137.882812 -158.207031 134.820312 -150.140625 133.59375 -145.234375 L 133.59375 -112.140625 C 133.59375 -103.148438 133.898438 -97.222656 134.515625 -94.359375 C 135.128906 -91.503906 136.148438 -88.644531 137.578125 -85.78125 C 139.003906 -82.925781 140.128906 -80.890625 140.953125 -79.671875 C 142.578125 -76.804688 145.226562 -73.332031 148.90625 -69.25 C 152.582031 -65.164062 154.832031 -62.507812 155.65625 -61.28125 C 158.925781 -58.007812 161.582031 -56.375 163.625 -56.375 C 164.84375 -56.375 166.675781 -56.882812 169.125 -57.90625 C 171.582031 -58.925781 174.648438 -59.847656 178.328125 -60.671875 Z M 178.328125 -60.671875 "/></g></g></g><g fill="#92e5bd" fill-opacity="1"><g transform="translate(754.795747, 986.988595)"><g><path d="M 55.125 -1.703125 C 50.925781 -3.078125 46.800781 -5.191406 42.75 -8.046875 C 38.707031 -10.910156 35.9375 -13.445312 34.4375 -15.65625 C 34.414062 -16.113281 34.367188 -16.910156 34.296875 -18.046875 C 34.234375 -19.179688 34.535156 -19.9375 35.203125 -20.3125 C 35.878906 -20.6875 37.128906 -20.925781 38.953125 -21.03125 C 42.828125 -21.25 49.007812 -21.140625 57.5 -20.703125 C 62.507812 -20.984375 68.164062 -21.929688 74.46875 -23.546875 C 80.78125 -25.160156 84.238281 -26.785156 84.84375 -28.421875 C 85.53125 -28.453125 85.863281 -28.582031 85.84375 -28.8125 C 85.820312 -29.269531 84.847656 -30.351562 82.921875 -32.0625 C 82.472656 -32.039062 81.425781 -32.382812 79.78125 -33.09375 C 78.132812 -33.8125 77.082031 -34.15625 76.625 -34.125 C 76.582031 -35.03125 75.492188 -36.164062 73.359375 -37.53125 C 71.222656 -38.894531 68.867188 -40.082031 66.296875 -41.09375 C 59.378906 -46.1875 54.476562 -49.96875 51.59375 -52.4375 C 48.71875 -54.914062 47.59375 -56.742188 48.21875 -57.921875 L 48.125 -59.625 C 46.519531 -59.53125 44.625 -61.648438 42.4375 -65.984375 C 40.257812 -70.328125 39.0625 -74.4375 38.84375 -78.3125 C 38.613281 -82.414062 40.0625 -88.210938 43.1875 -95.703125 C 46.3125 -103.203125 50.019531 -109.359375 54.3125 -114.171875 C 60.363281 -120.453125 68.273438 -127.179688 78.046875 -134.359375 C 87.828125 -141.535156 95.628906 -146.203125 101.453125 -148.359375 C 105.234375 -150.171875 109.066406 -151.179688 112.953125 -151.390625 C 116.585938 -151.597656 119.707031 -150.972656 122.3125 -149.515625 C 125.363281 -147.859375 128.410156 -145.398438 131.453125 -142.140625 C 134.503906 -138.890625 136.5625 -135.921875 137.625 -133.234375 C 137.90625 -128.210938 137.664062 -123.335938 136.90625 -118.609375 C 136.144531 -113.890625 134.734375 -111.472656 132.671875 -111.359375 C 132.441406 -111.347656 132.101562 -111.210938 131.65625 -110.953125 C 131.21875 -110.703125 131.023438 -110.117188 131.078125 -109.203125 C 131.128906 -108.296875 130.738281 -107.070312 129.90625 -105.53125 C 129.070312 -104 127.90625 -102.503906 126.40625 -101.046875 C 121.582031 -97.117188 117.578125 -95.066406 114.390625 -94.890625 C 111.878906 -94.753906 110.210938 -95.921875 109.390625 -98.390625 C 108.910156 -98.828125 108.414062 -99.484375 107.90625 -100.359375 C 107.40625 -101.242188 106.8125 -101.664062 106.125 -101.625 C 105.894531 -101.613281 105.472656 -101.988281 104.859375 -102.75 C 104.242188 -103.519531 103.894531 -104.59375 103.8125 -105.96875 C 103.78125 -106.65625 104.023438 -107.410156 104.546875 -108.234375 C 105.078125 -109.066406 105.453125 -109.601562 105.671875 -109.84375 C 107.035156 -109.914062 109.160156 -112.71875 112.046875 -118.25 C 114.941406 -123.789062 116.34375 -127.472656 116.25 -129.296875 C 116.164062 -130.660156 115.945312 -131.445312 115.59375 -131.65625 C 115.238281 -131.863281 114.148438 -131.914062 112.328125 -131.8125 C 95.003906 -122.851562 84.285156 -116.195312 80.171875 -111.84375 C 79.554688 -110.4375 79.09375 -109.492188 78.78125 -109.015625 C 78.476562 -108.546875 77.867188 -108.285156 76.953125 -108.234375 C 76.835938 -110.273438 71.222656 -102.179688 60.109375 -83.953125 C 59.691406 -83.484375 59.257812 -82.09375 58.8125 -79.78125 C 58.375 -77.46875 58.203125 -75.515625 58.296875 -73.921875 C 57.941406 -72.066406 57.769531 -71.023438 57.78125 -70.796875 C 57.832031 -69.878906 58.28125 -68.988281 59.125 -68.125 C 59.96875 -67.269531 61.101562 -66.363281 62.53125 -65.40625 C 63.957031 -64.457031 65.390625 -63.453125 66.828125 -62.390625 C 79.171875 -54.160156 87.800781 -47.953125 92.71875 -43.765625 C 97.644531 -39.585938 100.648438 -36.039062 101.734375 -33.125 C 104.953125 -28.738281 106.660156 -24.71875 106.859375 -21.0625 C 107.015625 -18.332031 106.125 -15.882812 104.1875 -13.71875 C 102.25 -11.5625 99.28125 -9.457031 95.28125 -7.40625 C 92.84375 -6.113281 88.679688 -4.898438 82.796875 -3.765625 C 76.910156 -2.628906 71.113281 -1.90625 65.40625 -1.59375 C 62.21875 -1.414062 58.789062 -1.453125 55.125 -1.703125 Z M 55.125 -1.703125 "/></g></g></g><g fill="#92e5bd" fill-opacity="1"><g transform="translate(952.765316, 975.909401)"><g><path d="M 61.0625 -5.8125 C 57.375 -6.300781 53.53125 -8.546875 49.53125 -12.546875 C 45.539062 -16.546875 42.878906 -20.34375 41.546875 -23.9375 C 41.515625 -24.394531 41.253906 -24.894531 40.765625 -25.4375 C 40.273438 -25.976562 39.910156 -26.359375 39.671875 -26.578125 C 38.710938 -27.203125 38.046875 -30.929688 37.671875 -37.765625 C 37.359375 -43.242188 37.320312 -48.960938 37.5625 -54.921875 C 37.8125 -60.878906 38.289062 -65.707031 39 -69.40625 L 44.125 -87.859375 L 48.15625 -101.8125 L 56.28125 -122.15625 L 42.390625 -125.15625 C 40.773438 -125.300781 39.414062 -126.023438 38.3125 -127.328125 C 37.21875 -128.640625 36.640625 -129.867188 36.578125 -131.015625 C 36.472656 -132.835938 37.316406 -135.113281 39.109375 -137.84375 C 40.898438 -140.570312 42.367188 -141.96875 43.515625 -142.03125 C 44.203125 -141.832031 46.023438 -141.816406 48.984375 -141.984375 C 55.828125 -142.367188 60.9375 -143 64.3125 -143.875 C 66.539062 -144.925781 68.035156 -146.835938 68.796875 -149.609375 C 69.609375 -151.484375 70.5625 -153.820312 71.65625 -156.625 C 72.757812 -159.4375 73.820312 -162.015625 74.84375 -164.359375 C 75.4375 -165.773438 76.394531 -167.945312 77.71875 -170.875 C 79.039062 -173.8125 80.75 -177.160156 82.84375 -180.921875 C 83.25 -181.628906 84.175781 -183.335938 85.625 -186.046875 C 87.070312 -188.753906 88.882812 -191.09375 91.0625 -193.0625 C 92.570312 -194.738281 94.460938 -195.640625 96.734375 -195.765625 C 99.015625 -195.898438 102.0625 -194.582031 105.875 -191.8125 C 106.375 -191.15625 107.050781 -190.28125 107.90625 -189.1875 C 108.769531 -188.09375 109.226562 -187.085938 109.28125 -186.171875 C 109.332031 -185.265625 108.53125 -183.285156 106.875 -180.234375 C 105.65625 -177.410156 104.476562 -174.878906 103.34375 -172.640625 C 102.21875 -170.410156 101.242188 -168.472656 100.421875 -166.828125 C 97.929688 -162.109375 96.1875 -158.578125 95.1875 -156.234375 C 93.070312 -153.148438 92.0625 -150.8125 92.15625 -149.21875 C 92.238281 -147.625 93.757812 -146.910156 96.71875 -147.078125 C 99.90625 -147.253906 105.226562 -148.234375 112.6875 -150.015625 C 115.851562 -150.640625 118.003906 -150.984375 119.140625 -151.046875 C 127.117188 -151.492188 131.632812 -148.429688 132.6875 -141.859375 C 132.988281 -140.515625 133.191406 -138.929688 133.296875 -137.109375 C 133.472656 -133.910156 132.492188 -131.910156 130.359375 -131.109375 C 128.234375 -130.304688 123.414062 -129.695312 115.90625 -129.28125 C 108.675781 -127.726562 101.1875 -126.738281 93.4375 -126.3125 C 92.0625 -126.226562 90.519531 -126.082031 88.8125 -125.875 C 87.113281 -125.664062 85.363281 -125.28125 83.5625 -124.71875 C 81.769531 -124.15625 80.5 -123.394531 79.75 -122.4375 C 79 -121.488281 78.234375 -119.96875 77.453125 -117.875 C 76.796875 -117.144531 75.34375 -114.425781 73.09375 -109.71875 C 70.269531 -102.9375 68.441406 -98.835938 67.609375 -97.421875 C 62.484375 -78.835938 58.972656 -59.890625 57.078125 -40.578125 C 56.816406 -36.898438 56.710938 -34.609375 56.765625 -33.703125 C 56.953125 -30.273438 58.222656 -27.941406 60.578125 -26.703125 C 62.929688 -25.472656 66.847656 -25.007812 72.328125 -25.3125 C 80.066406 -25.75 86.75 -26.921875 92.375 -28.828125 C 99.050781 -32.171875 104.039062 -34.96875 107.34375 -37.21875 C 109.320312 -38.476562 111.132812 -39.664062 112.78125 -40.78125 C 114.4375 -41.894531 115.59375 -42.703125 116.25 -43.203125 C 116.863281 -44.609375 117.628906 -45.335938 118.546875 -45.390625 C 120.367188 -45.492188 122.0625 -43.757812 123.625 -40.1875 C 123.832031 -36.53125 123.210938 -33.289062 121.765625 -30.46875 C 120.328125 -27.644531 116.519531 -24.238281 110.34375 -20.25 C 97.59375 -11.070312 84.609375 -6.113281 71.390625 -5.375 C 67.734375 -5.164062 64.289062 -5.3125 61.0625 -5.8125 Z M 61.0625 -5.8125 "/></g></g></g><g fill="#92e5bd" fill-opacity="1"><g transform="translate(1143.89657, 965.212907)"><g><path d="M 93.6875 -17.25 C 88.269531 -11.914062 81.578125 -9.023438 73.609375 -8.578125 C 67.898438 -8.265625 62.40625 -9.332031 57.125 -11.78125 C 51.851562 -14.226562 47.367188 -17.742188 43.671875 -22.328125 C 40.503906 -25.804688 38.109375 -29.789062 36.484375 -34.28125 C 34.859375 -38.769531 33.863281 -44.316406 33.5 -50.921875 C 33.375 -53.203125 33.347656 -57.773438 33.421875 -64.640625 C 33.640625 -73.109375 35.941406 -82.039062 40.328125 -91.4375 C 44.722656 -100.832031 50.363281 -109.320312 57.25 -116.90625 C 64.144531 -124.488281 71.046875 -129.847656 77.953125 -132.984375 C 81.484375 -135.460938 84.726562 -136.785156 87.6875 -136.953125 C 89.28125 -137.046875 90.878906 -137.019531 92.484375 -136.875 C 94.097656 -136.738281 95.820312 -136.609375 97.65625 -136.484375 C 102.71875 -136.085938 106.59375 -135.332031 109.28125 -134.21875 C 111.96875 -133.101562 114.296875 -131.347656 116.265625 -128.953125 C 122.285156 -123.566406 125.503906 -117.113281 125.921875 -109.59375 C 125.304688 -104.070312 122.117188 -97.601562 116.359375 -90.1875 C 110.609375 -82.78125 103.519531 -76.671875 95.09375 -71.859375 C 91.082031 -70.265625 86.445312 -69.320312 81.1875 -69.03125 C 74.132812 -68.632812 68.359375 -69.789062 63.859375 -72.5 C 61.753906 -73.070312 60.140625 -73.328125 59.015625 -73.265625 C 56.953125 -73.148438 55.484375 -71.695312 54.609375 -68.90625 C 53.742188 -66.113281 53.0625 -61.046875 52.5625 -53.703125 C 52.414062 -52.085938 52.425781 -49.800781 52.59375 -46.84375 C 53.25 -35.21875 57.484375 -29.054688 65.296875 -28.359375 C 70.597656 -27.503906 74.390625 -27.140625 76.671875 -27.265625 C 79.410156 -27.421875 82.4375 -28.503906 85.75 -30.515625 L 92.046875 -34.640625 C 93.367188 -35.410156 94.566406 -36.394531 95.640625 -37.59375 C 96.722656 -38.800781 97.695312 -39.878906 98.5625 -40.828125 C 98.976562 -41.304688 99.613281 -42.085938 100.46875 -43.171875 C 101.332031 -44.253906 102.148438 -44.988281 102.921875 -45.375 C 103.703125 -45.757812 104.4375 -45.96875 105.125 -46 C 106.039062 -46.050781 107.097656 -45.597656 108.296875 -44.640625 C 109.492188 -43.679688 110.445312 -42.988281 111.15625 -42.5625 C 113.195312 -42.675781 113.726562 -41.273438 112.75 -38.359375 C 111.78125 -35.453125 109.515625 -32.015625 105.953125 -28.046875 C 102.398438 -24.078125 98.3125 -20.476562 93.6875 -17.25 Z M 89.3125 -89.71875 C 93.09375 -91.53125 96.863281 -94.597656 100.625 -98.921875 C 104.382812 -103.242188 106.1875 -106.773438 106.03125 -109.515625 C 105.882812 -112.242188 104.726562 -114.460938 102.5625 -116.171875 C 100.40625 -117.890625 97.507812 -118.648438 93.875 -118.453125 C 91.132812 -118.296875 89.09375 -117.953125 87.75 -117.421875 C 84.601562 -116.328125 80.972656 -113.660156 76.859375 -109.421875 C 72.753906 -105.191406 69.222656 -100.9375 66.265625 -96.65625 C 63.304688 -92.375 62.191406 -89.90625 62.921875 -89.25 C 64.171875 -87.28125 68.671875 -86.507812 76.421875 -86.9375 C 81.660156 -87.226562 85.957031 -88.15625 89.3125 -89.71875 Z M 89.3125 -89.71875 "/></g></g></g><g fill="#92e5bd" fill-opacity="1"><g transform="translate(1332.976335, 954.631224)"><g><path d="M 61.0625 -5.8125 C 57.375 -6.300781 53.53125 -8.546875 49.53125 -12.546875 C 45.539062 -16.546875 42.878906 -20.34375 41.546875 -23.9375 C 41.515625 -24.394531 41.253906 -24.894531 40.765625 -25.4375 C 40.273438 -25.976562 39.910156 -26.359375 39.671875 -26.578125 C 38.710938 -27.203125 38.046875 -30.929688 37.671875 -37.765625 C 37.359375 -43.242188 37.320312 -48.960938 37.5625 -54.921875 C 37.8125 -60.878906 38.289062 -65.707031 39 -69.40625 L 44.125 -87.859375 L 48.15625 -101.8125 L 56.28125 -122.15625 L 42.390625 -125.15625 C 40.773438 -125.300781 39.414062 -126.023438 38.3125 -127.328125 C 37.21875 -128.640625 36.640625 -129.867188 36.578125 -131.015625 C 36.472656 -132.835938 37.316406 -135.113281 39.109375 -137.84375 C 40.898438 -140.570312 42.367188 -141.96875 43.515625 -142.03125 C 44.203125 -141.832031 46.023438 -141.816406 48.984375 -141.984375 C 55.828125 -142.367188 60.9375 -143 64.3125 -143.875 C 66.539062 -144.925781 68.035156 -146.835938 68.796875 -149.609375 C 69.609375 -151.484375 70.5625 -153.820312 71.65625 -156.625 C 72.757812 -159.4375 73.820312 -162.015625 74.84375 -164.359375 C 75.4375 -165.773438 76.394531 -167.945312 77.71875 -170.875 C 79.039062 -173.8125 80.75 -177.160156 82.84375 -180.921875 C 83.25 -181.628906 84.175781 -183.335938 85.625 -186.046875 C 87.070312 -188.753906 88.882812 -191.09375 91.0625 -193.0625 C 92.570312 -194.738281 94.460938 -195.640625 96.734375 -195.765625 C 99.015625 -195.898438 102.0625 -194.582031 105.875 -191.8125 C 106.375 -191.15625 107.050781 -190.28125 107.90625 -189.1875 C 108.769531 -188.09375 109.226562 -187.085938 109.28125 -186.171875 C 109.332031 -185.265625 108.53125 -183.285156 106.875 -180.234375 C 105.65625 -177.410156 104.476562 -174.878906 103.34375 -172.640625 C 102.21875 -170.410156 101.242188 -168.472656 100.421875 -166.828125 C 97.929688 -162.109375 96.1875 -158.578125 95.1875 -156.234375 C 93.070312 -153.148438 92.0625 -150.8125 92.15625 -149.21875 C 92.238281 -147.625 93.757812 -146.910156 96.71875 -147.078125 C 99.90625 -147.253906 105.226562 -148.234375 112.6875 -150.015625 C 115.851562 -150.640625 118.003906 -150.984375 119.140625 -151.046875 C 127.117188 -151.492188 131.632812 -148.429688 132.6875 -141.859375 C 132.988281 -140.515625 133.191406 -138.929688 133.296875 -137.109375 C 133.472656 -133.910156 132.492188 -131.910156 130.359375 -131.109375 C 128.234375 -130.304688 123.414062 -129.695312 115.90625 -129.28125 C 108.675781 -127.726562 101.1875 -126.738281 93.4375 -126.3125 C 92.0625 -126.226562 90.519531 -126.082031 88.8125 -125.875 C 87.113281 -125.664062 85.363281 -125.28125 83.5625 -124.71875 C 81.769531 -124.15625 80.5 -123.394531 79.75 -122.4375 C 79 -121.488281 78.234375 -119.96875 77.453125 -117.875 C 76.796875 -117.144531 75.34375 -114.425781 73.09375 -109.71875 C 70.269531 -102.9375 68.441406 -98.835938 67.609375 -97.421875 C 62.484375 -78.835938 58.972656 -59.890625 57.078125 -40.578125 C 56.816406 -36.898438 56.710938 -34.609375 56.765625 -33.703125 C 56.953125 -30.273438 58.222656 -27.941406 60.578125 -26.703125 C 62.929688 -25.472656 66.847656 -25.007812 72.328125 -25.3125 C 80.066406 -25.75 86.75 -26.921875 92.375 -28.828125 C 99.050781 -32.171875 104.039062 -34.96875 107.34375 -37.21875 C 109.320312 -38.476562 111.132812 -39.664062 112.78125 -40.78125 C 114.4375 -41.894531 115.59375 -42.703125 116.25 -43.203125 C 116.863281 -44.609375 117.628906 -45.335938 118.546875 -45.390625 C 120.367188 -45.492188 122.0625 -43.757812 123.625 -40.1875 C 123.832031 -36.53125 123.210938 -33.289062 121.765625 -30.46875 C 120.328125 -27.644531 116.519531 -24.238281 110.34375 -20.25 C 97.59375 -11.070312 84.609375 -6.113281 71.390625 -5.375 C 67.734375 -5.164062 64.289062 -5.3125 61.0625 -5.8125 Z M 61.0625 -5.8125 "/></g></g></g></svg>