<svg xmlns="http://www.w3.org/2000/svg" xmlns:xlink="http://www.w3.org/1999/xlink" width="3000" zoomAndPan="magnify" viewBox="0 0 2250 1499.999933" height="2000" preserveAspectRatio="xMidYMid meet" version="1.0"><defs><g/></defs><g fill="#F4EDDF" fill-opacity="1"><g transform="translate(448.722659, 753.968089)"><g><path d="M 194.796875 0 L 143.921875 0 L 143.921875 -392.28125 L 5.390625 -392.28125 L 5.390625 -437.46875 L 333.34375 -437.46875 L 333.34375 -392.28125 L 194.796875 -392.28125 Z M 194.796875 0 "/></g></g></g><g fill="#F4EDDF" fill-opacity="1"><g transform="translate(782.231798, 753.968089)"><g><path d="M 171.453125 -218.734375 L 288.15625 -437.46875 L 343.203125 -437.46875 L 197.1875 -169.65625 L 197.1875 0 L 145.71875 0 L 145.71875 -167.265625 L 0 -437.46875 L 55.65625 -437.46875 Z M 171.453125 -218.734375 "/></g></g></g><g fill="#F4EDDF" fill-opacity="1"><g transform="translate(1119.930122, 753.968089)"><g><path d="M 337.53125 -310 C 337.53125 -265.707031 322.414062 -231.640625 292.1875 -207.796875 C 261.96875 -183.960938 218.734375 -172.046875 162.484375 -172.046875 L 111.015625 -172.046875 L 111.015625 0 L 60.140625 0 L 60.140625 -437.46875 L 173.546875 -437.46875 C 282.867188 -437.46875 337.53125 -394.976562 337.53125 -310 Z M 111.015625 -215.734375 L 156.796875 -215.734375 C 201.878906 -215.734375 234.492188 -223.015625 254.640625 -237.578125 C 274.785156 -252.140625 284.859375 -275.484375 284.859375 -307.609375 C 284.859375 -336.523438 275.382812 -358.066406 256.4375 -372.234375 C 237.488281 -386.398438 207.960938 -393.484375 167.859375 -393.484375 L 111.015625 -393.484375 Z M 111.015625 -215.734375 "/></g></g></g><g fill="#F4EDDF" fill-opacity="1"><g transform="translate(1483.362038, 753.968089)"><g><path d="M 319.875 -219.328125 C 319.875 -143.722656 307.953125 -87.269531 284.109375 -49.96875 C 260.273438 -12.664062 223.820312 5.984375 174.75 5.984375 C 127.664062 5.984375 91.851562 -13.113281 67.3125 -51.3125 C 42.78125 -89.519531 30.515625 -145.523438 30.515625 -219.328125 C 30.515625 -295.535156 42.382812 -352.085938 66.125 -388.984375 C 89.863281 -425.890625 126.070312 -444.34375 174.75 -444.34375 C 222.226562 -444.34375 258.285156 -425.09375 282.921875 -386.59375 C 307.554688 -348.09375 319.875 -292.335938 319.875 -219.328125 Z M 80.796875 -219.328125 C 80.796875 -155.691406 88.273438 -109.359375 103.234375 -80.328125 C 118.191406 -51.304688 142.03125 -36.796875 174.75 -36.796875 C 207.863281 -36.796875 231.847656 -51.507812 246.703125 -80.9375 C 261.566406 -110.363281 269 -156.492188 269 -219.328125 C 269 -282.171875 261.566406 -328.203125 246.703125 -357.421875 C 231.847656 -386.648438 207.863281 -401.265625 174.75 -401.265625 C 142.03125 -401.265625 118.191406 -386.847656 103.234375 -358.015625 C 88.273438 -329.191406 80.796875 -282.960938 80.796875 -219.328125 Z M 80.796875 -219.328125 "/></g></g></g><g fill="#92e5bd" fill-opacity="1"><g transform="translate(717.27601, 1040.085979)"><g><path d="M 144.625 -58.171875 C 145.582031 -41.140625 139.972656 -27.648438 127.796875 -17.703125 C 115.628906 -7.753906 98.078125 -2.132812 75.140625 -0.84375 C 50.878906 0.507812 31.742188 -2.269531 17.734375 -9.1875 L 16.296875 -34.90625 C 25.347656 -30.9375 34.976562 -27.957031 45.1875 -25.96875 C 55.40625 -23.976562 65.1875 -23.242188 74.53125 -23.765625 C 89 -24.578125 100 -27.507812 107.53125 -32.5625 C 115.0625 -37.613281 118.566406 -44.867188 118.046875 -54.328125 C 117.640625 -61.453125 114.207031 -67.375 107.75 -72.09375 C 101.289062 -76.820312 88.90625 -82.132812 70.59375 -88.03125 C 53.21875 -93.414062 40.804688 -98.269531 33.359375 -102.59375 C 25.921875 -106.925781 20.273438 -112 16.421875 -117.8125 C 12.578125 -123.625 10.425781 -130.703125 9.96875 -139.046875 C 9.132812 -153.960938 14.539062 -166.070312 26.1875 -175.375 C 37.84375 -184.6875 54.242188 -189.929688 75.390625 -191.109375 C 95.085938 -192.210938 114.566406 -189.285156 133.828125 -182.328125 L 125.25 -159.25 C 106.445312 -165.789062 89.59375 -168.644531 74.6875 -167.8125 C 61.550781 -167.082031 51.757812 -164.46875 45.3125 -159.96875 C 38.863281 -155.476562 35.84375 -149.613281 36.25 -142.375 C 36.519531 -137.476562 38.003906 -133.375 40.703125 -130.0625 C 43.398438 -126.757812 47.617188 -123.703125 53.359375 -120.890625 C 59.097656 -118.085938 70.039062 -114.175781 86.1875 -109.15625 C 108.3125 -102.46875 123.410156 -95.328125 131.484375 -87.734375 C 139.566406 -80.148438 143.945312 -70.296875 144.625 -58.171875 Z M 144.625 -58.171875 "/></g></g></g><g fill="#92e5bd" fill-opacity="1"><g transform="translate(958.344448, 1026.594794)"><g><path d="M 87.390625 -24.484375 C 92.285156 -24.753906 96.992188 -25.378906 101.515625 -26.359375 C 106.035156 -27.335938 109.613281 -28.296875 112.25 -29.234375 L 113.4375 -8.03125 C 110.507812 -6.40625 106.148438 -4.957031 100.359375 -3.6875 C 94.578125 -2.414062 89.34375 -1.644531 84.65625 -1.375 C 49.269531 0.601562 30.535156 -17.050781 28.453125 -54.34375 L 22.359375 -163.203125 L -3.859375 -161.75 L -4.609375 -175.09375 L 20.96875 -188.0625 L 30.46875 -227.78125 L 46.484375 -228.6875 L 48.859375 -186.296875 L 101.96875 -189.265625 L 103.171875 -167.734375 L 50.0625 -164.765625 L 56.078125 -57.078125 C 56.703125 -46.046875 59.789062 -37.726562 65.34375 -32.125 C 70.90625 -26.519531 78.253906 -23.972656 87.390625 -24.484375 Z M 87.390625 -24.484375 "/></g></g></g><g fill="#92e5bd" fill-opacity="1"><g transform="translate(1157.007424, 1015.476795)"><g><path d="M 106.859375 -2.625 C 79.816406 -1.113281 58.015625 -8.15625 41.453125 -23.75 C 24.898438 -39.351562 15.804688 -61.789062 14.171875 -91.0625 C 12.515625 -120.550781 18.460938 -144.382812 32.015625 -162.5625 C 45.578125 -180.738281 64.597656 -190.507812 89.078125 -191.875 C 112.015625 -193.15625 130.578125 -186.628906 144.765625 -172.296875 C 158.960938 -157.972656 166.753906 -138.457031 168.140625 -113.75 L 169.109375 -96.203125 L 43.0625 -89.15625 C 44.832031 -67.71875 51.175781 -51.71875 62.09375 -41.15625 C 73.007812 -30.601562 87.816406 -25.851562 106.515625 -26.90625 C 126.210938 -28 145.457031 -33.207031 164.25 -42.53125 L 165.625 -17.8125 C 156.070312 -13.03125 146.976562 -9.472656 138.34375 -7.140625 C 129.707031 -4.816406 119.210938 -3.3125 106.859375 -2.625 Z M 90.046875 -168.671875 C 75.347656 -167.847656 63.898438 -162.398438 55.703125 -152.328125 C 47.503906 -142.265625 43.097656 -128.734375 42.484375 -111.734375 L 138.140625 -117.09375 C 137.160156 -134.5625 132.515625 -147.726562 124.203125 -156.59375 C 115.898438 -165.457031 104.515625 -169.484375 90.046875 -168.671875 Z M 90.046875 -168.671875 "/></g></g></g><g fill="#92e5bd" fill-opacity="1"><g transform="translate(1426.791396, 1000.378571)"><g><path d="M 87.390625 -24.484375 C 92.285156 -24.753906 96.992188 -25.378906 101.515625 -26.359375 C 106.035156 -27.335938 109.613281 -28.296875 112.25 -29.234375 L 113.4375 -8.03125 C 110.507812 -6.40625 106.148438 -4.957031 100.359375 -3.6875 C 94.578125 -2.414062 89.34375 -1.644531 84.65625 -1.375 C 49.269531 0.601562 30.535156 -17.050781 28.453125 -54.34375 L 22.359375 -163.203125 L -3.859375 -161.75 L -4.609375 -175.09375 L 20.96875 -188.0625 L 30.46875 -227.78125 L 46.484375 -228.6875 L 48.859375 -186.296875 L 101.96875 -189.265625 L 103.171875 -167.734375 L 50.0625 -164.765625 L 56.078125 -57.078125 C 56.703125 -46.046875 59.789062 -37.726562 65.34375 -32.125 C 70.90625 -26.519531 78.253906 -23.972656 87.390625 -24.484375 Z M 87.390625 -24.484375 "/></g></g></g></svg>