<svg xmlns="http://www.w3.org/2000/svg" xmlns:xlink="http://www.w3.org/1999/xlink" width="2000" zoomAndPan="magnify" viewBox="0 0 1500 1799.999925" height="2400" preserveAspectRatio="xMidYMid meet" version="1.0"><defs><g/><clipPath id="34d3b594a9"><path d="M 379.5 1438.8125 L 477.832031 1438.8125 L 477.832031 1537.140625 L 379.5 1537.140625 Z M 379.5 1438.8125 " clip-rule="nonzero"/></clipPath><clipPath id="f1c795bab8"><path d="M 428.667969 1438.8125 C 401.511719 1438.8125 379.5 1460.824219 379.5 1487.976562 C 379.5 1515.128906 401.511719 1537.140625 428.667969 1537.140625 C 455.820312 1537.140625 477.832031 1515.128906 477.832031 1487.976562 C 477.832031 1460.824219 455.820312 1438.8125 428.667969 1438.8125 Z M 428.667969 1438.8125 " clip-rule="nonzero"/></clipPath><clipPath id="5e0f916e2b"><path d="M 0.5 0.8125 L 98.832031 0.8125 L 98.832031 99.140625 L 0.5 99.140625 Z M 0.5 0.8125 " clip-rule="nonzero"/></clipPath><clipPath id="935417d0b9"><path d="M 49.667969 0.8125 C 22.511719 0.8125 0.5 22.824219 0.5 49.976562 C 0.5 77.128906 22.511719 99.140625 49.667969 99.140625 C 76.820312 99.140625 98.832031 77.128906 98.832031 49.976562 C 98.832031 22.824219 76.820312 0.8125 49.667969 0.8125 Z M 49.667969 0.8125 " clip-rule="nonzero"/></clipPath><clipPath id="05ba8d6c1c"><rect x="0" width="99" y="0" height="100"/></clipPath><clipPath id="c87a61debb"><path d="M 1007.222656 1438.8125 L 1105.554688 1438.8125 L 1105.554688 1537.140625 L 1007.222656 1537.140625 Z M 1007.222656 1438.8125 " clip-rule="nonzero"/></clipPath><clipPath id="2cb1f8fde9"><path d="M 1056.390625 1438.8125 C 1029.234375 1438.8125 1007.222656 1460.824219 1007.222656 1487.976562 C 1007.222656 1515.128906 1029.234375 1537.140625 1056.390625 1537.140625 C 1083.542969 1537.140625 1105.554688 1515.128906 1105.554688 1487.976562 C 1105.554688 1460.824219 1083.542969 1438.8125 1056.390625 1438.8125 Z M 1056.390625 1438.8125 " clip-rule="nonzero"/></clipPath><clipPath id="33f9963022"><path d="M 0.222656 0.8125 L 98.554688 0.8125 L 98.554688 99.140625 L 0.222656 99.140625 Z M 0.222656 0.8125 " clip-rule="nonzero"/></clipPath><clipPath id="8f3633472c"><path d="M 49.390625 0.8125 C 22.234375 0.8125 0.222656 22.824219 0.222656 49.976562 C 0.222656 77.128906 22.234375 99.140625 49.390625 99.140625 C 76.542969 99.140625 98.554688 77.128906 98.554688 49.976562 C 98.554688 22.824219 76.542969 0.8125 49.390625 0.8125 Z M 49.390625 0.8125 " clip-rule="nonzero"/></clipPath><clipPath id="3d39d43a49"><rect x="0" width="99" y="0" height="100"/></clipPath><clipPath id="175b7fd6ee"><path d="M 797.894531 1438.8125 L 896.222656 1438.8125 L 896.222656 1537.140625 L 797.894531 1537.140625 Z M 797.894531 1438.8125 " clip-rule="nonzero"/></clipPath><clipPath id="d9f4a733ba"><path d="M 847.058594 1438.8125 C 819.90625 1438.8125 797.894531 1460.824219 797.894531 1487.976562 C 797.894531 1515.128906 819.90625 1537.140625 847.058594 1537.140625 C 874.210938 1537.140625 896.222656 1515.128906 896.222656 1487.976562 C 896.222656 1460.824219 874.210938 1438.8125 847.058594 1438.8125 Z M 847.058594 1438.8125 " clip-rule="nonzero"/></clipPath><clipPath id="f8ab9c72de"><path d="M 0.894531 0.8125 L 99.222656 0.8125 L 99.222656 99.140625 L 0.894531 99.140625 Z M 0.894531 0.8125 " clip-rule="nonzero"/></clipPath><clipPath id="c743282892"><path d="M 50.058594 0.8125 C 22.90625 0.8125 0.894531 22.824219 0.894531 49.976562 C 0.894531 77.128906 22.90625 99.140625 50.058594 99.140625 C 77.210938 99.140625 99.222656 77.128906 99.222656 49.976562 C 99.222656 22.824219 77.210938 0.8125 50.058594 0.8125 Z M 50.058594 0.8125 " clip-rule="nonzero"/></clipPath><clipPath id="1993693944"><rect x="0" width="100" y="0" height="100"/></clipPath><clipPath id="f03fe4e1ce"><path d="M 588.5625 1438.8125 L 686.894531 1438.8125 L 686.894531 1537.140625 L 588.5625 1537.140625 Z M 588.5625 1438.8125 " clip-rule="nonzero"/></clipPath><clipPath id="2ba6562798"><path d="M 637.730469 1438.8125 C 610.574219 1438.8125 588.5625 1460.824219 588.5625 1487.976562 C 588.5625 1515.128906 610.574219 1537.140625 637.730469 1537.140625 C 664.882812 1537.140625 686.894531 1515.128906 686.894531 1487.976562 C 686.894531 1460.824219 664.882812 1438.8125 637.730469 1438.8125 Z M 637.730469 1438.8125 " clip-rule="nonzero"/></clipPath><clipPath id="a4dfb9ba44"><path d="M 0.5625 0.8125 L 98.894531 0.8125 L 98.894531 99.140625 L 0.5625 99.140625 Z M 0.5625 0.8125 " clip-rule="nonzero"/></clipPath><clipPath id="811a3b1e58"><path d="M 49.730469 0.8125 C 22.574219 0.8125 0.5625 22.824219 0.5625 49.976562 C 0.5625 77.128906 22.574219 99.140625 49.730469 99.140625 C 76.882812 99.140625 98.894531 77.128906 98.894531 49.976562 C 98.894531 22.824219 76.882812 0.8125 49.730469 0.8125 Z M 49.730469 0.8125 " clip-rule="nonzero"/></clipPath><clipPath id="b728a08ae0"><rect x="0" width="99" y="0" height="100"/></clipPath></defs><g fill="#92e5bd" fill-opacity="1"><g transform="translate(448.460766, 1197.013494)"><g><path d="M 382.9375 -783.96875 C 382.9375 -760.851562 380.925781 -740.753906 376.90625 -723.671875 L 226.140625 -723.671875 C 222.117188 -740.753906 220.109375 -760.851562 220.109375 -783.96875 C 220.109375 -808.09375 222.117188 -828.195312 226.140625 -844.28125 L 376.90625 -844.28125 C 380.925781 -828.195312 382.9375 -808.09375 382.9375 -783.96875 Z M 226.140625 -241.21875 C 230.160156 -225.132812 232.171875 -205.035156 232.171875 -180.921875 C 232.171875 -157.796875 230.160156 -137.691406 226.140625 -120.609375 L 150.765625 -120.609375 C 146.742188 -137.691406 144.734375 -157.796875 144.734375 -180.921875 C 144.734375 -205.035156 146.742188 -225.132812 150.765625 -241.21875 L 105.53125 -241.21875 C 101.507812 -258.3125 99.5 -278.414062 99.5 -301.53125 C 99.5 -325.65625 101.507812 -345.753906 105.53125 -361.828125 C 101.507812 -378.921875 99.5 -399.023438 99.5 -422.140625 C 99.5 -446.265625 101.507812 -466.363281 105.53125 -482.4375 C 101.507812 -499.53125 99.5 -519.632812 99.5 -542.75 C 99.5 -566.875 101.507812 -586.976562 105.53125 -603.0625 L 150.765625 -603.0625 C 146.742188 -620.144531 144.734375 -640.242188 144.734375 -663.359375 C 144.734375 -687.484375 146.742188 -707.585938 150.765625 -723.671875 L 226.140625 -723.671875 C 230.160156 -707.585938 232.171875 -687.484375 232.171875 -663.359375 C 232.171875 -640.242188 230.160156 -620.144531 226.140625 -603.0625 C 230.160156 -586.976562 232.171875 -566.875 232.171875 -542.75 C 232.171875 -519.632812 230.160156 -499.53125 226.140625 -482.4375 C 230.160156 -466.363281 232.171875 -446.265625 232.171875 -422.140625 C 232.171875 -399.023438 230.160156 -378.921875 226.140625 -361.828125 C 230.160156 -345.753906 232.171875 -325.65625 232.171875 -301.53125 C 232.171875 -278.414062 230.160156 -258.3125 226.140625 -241.21875 Z M 497.515625 -482.4375 C 501.535156 -466.363281 503.546875 -446.265625 503.546875 -422.140625 C 503.546875 -399.023438 501.535156 -378.921875 497.515625 -361.828125 C 501.535156 -345.753906 503.546875 -325.65625 503.546875 -301.53125 C 503.546875 -278.414062 501.535156 -258.3125 497.515625 -241.21875 L 452.296875 -241.21875 C 456.316406 -225.132812 458.328125 -205.035156 458.328125 -180.921875 C 458.328125 -157.796875 456.316406 -137.691406 452.296875 -120.609375 L 376.90625 -120.609375 C 372.882812 -137.691406 370.875 -157.796875 370.875 -180.921875 C 370.875 -205.035156 372.882812 -225.132812 376.90625 -241.21875 C 372.882812 -258.3125 370.875 -278.414062 370.875 -301.53125 C 370.875 -325.65625 372.882812 -345.753906 376.90625 -361.828125 C 372.882812 -378.921875 370.875 -399.023438 370.875 -422.140625 C 370.875 -446.265625 372.882812 -466.363281 376.90625 -482.4375 C 372.882812 -499.53125 370.875 -519.632812 370.875 -542.75 C 370.875 -566.875 372.882812 -586.976562 376.90625 -603.0625 C 372.882812 -620.144531 370.875 -640.242188 370.875 -663.359375 C 370.875 -687.484375 372.882812 -707.585938 376.90625 -723.671875 L 452.296875 -723.671875 C 456.316406 -707.585938 458.328125 -687.484375 458.328125 -663.359375 C 458.328125 -640.242188 456.316406 -620.144531 452.296875 -603.0625 L 497.515625 -603.0625 C 501.535156 -586.976562 503.546875 -566.875 503.546875 -542.75 C 503.546875 -519.632812 501.535156 -499.53125 497.515625 -482.4375 Z M 220.109375 -60.3125 C 220.109375 -84.425781 222.117188 -104.523438 226.140625 -120.609375 L 376.90625 -120.609375 C 380.925781 -104.523438 382.9375 -84.425781 382.9375 -60.3125 C 382.9375 -37.1875 380.925781 -17.082031 376.90625 0 L 226.140625 0 C 222.117188 -17.082031 220.109375 -37.1875 220.109375 -60.3125 Z M 220.109375 -60.3125 "/></g></g></g><g clip-path="url(#34d3b594a9)"><g clip-path="url(#f1c795bab8)"><g transform="matrix(1, 0, 0, 1, 379, 1438)"><g clip-path="url(#05ba8d6c1c)"><g clip-path="url(#5e0f916e2b)"><g clip-path="url(#935417d0b9)"><path fill="#92e5bd" d="M 0.5 0.8125 L 98.832031 0.8125 L 98.832031 99.140625 L 0.5 99.140625 Z M 0.5 0.8125 " fill-opacity="1" fill-rule="nonzero"/></g></g></g></g></g></g><g clip-path="url(#c87a61debb)"><g clip-path="url(#2cb1f8fde9)"><g transform="matrix(1, 0, 0, 1, 1007, 1438)"><g clip-path="url(#3d39d43a49)"><g clip-path="url(#33f9963022)"><g clip-path="url(#8f3633472c)"><path fill="#92e5bd" d="M 0.222656 0.8125 L 98.554688 0.8125 L 98.554688 99.140625 L 0.222656 99.140625 Z M 0.222656 0.8125 " fill-opacity="1" fill-rule="nonzero"/></g></g></g></g></g></g><g clip-path="url(#175b7fd6ee)"><g clip-path="url(#d9f4a733ba)"><g transform="matrix(1, 0, 0, 1, 797, 1438)"><g clip-path="url(#1993693944)"><g clip-path="url(#f8ab9c72de)"><g clip-path="url(#c743282892)"><path fill="#92e5bd" d="M 0.894531 0.8125 L 99.222656 0.8125 L 99.222656 99.140625 L 0.894531 99.140625 Z M 0.894531 0.8125 " fill-opacity="1" fill-rule="nonzero"/></g></g></g></g></g></g><g clip-path="url(#f03fe4e1ce)"><g clip-path="url(#2ba6562798)"><g transform="matrix(1, 0, 0, 1, 588, 1438)"><g clip-path="url(#b728a08ae0)"><g clip-path="url(#a4dfb9ba44)"><g clip-path="url(#811a3b1e58)"><path fill="#92e5bd" d="M 0.5625 0.8125 L 98.894531 0.8125 L 98.894531 99.140625 L 0.5625 99.140625 Z M 0.5625 0.8125 " fill-opacity="1" fill-rule="nonzero"/></g></g></g></g></g></g></svg>