<svg xmlns="http://www.w3.org/2000/svg" xmlns:xlink="http://www.w3.org/1999/xlink" width="2000" zoomAndPan="magnify" viewBox="0 0 1500 1799.999925" height="2400" preserveAspectRatio="xMidYMid meet" version="1.0"><defs><g/><clipPath id="e1c0fa0105"><path d="M 379.5 1438.8125 L 477.832031 1438.8125 L 477.832031 1537.140625 L 379.5 1537.140625 Z M 379.5 1438.8125 " clip-rule="nonzero"/></clipPath><clipPath id="a141e44887"><path d="M 428.667969 1438.8125 C 401.511719 1438.8125 379.5 1460.824219 379.5 1487.976562 C 379.5 1515.128906 401.511719 1537.140625 428.667969 1537.140625 C 455.820312 1537.140625 477.832031 1515.128906 477.832031 1487.976562 C 477.832031 1460.824219 455.820312 1438.8125 428.667969 1438.8125 Z M 428.667969 1438.8125 " clip-rule="nonzero"/></clipPath><clipPath id="3f25e5c304"><path d="M 0.5 0.8125 L 98.832031 0.8125 L 98.832031 99.140625 L 0.5 99.140625 Z M 0.5 0.8125 " clip-rule="nonzero"/></clipPath><clipPath id="f34a47068f"><path d="M 49.667969 0.8125 C 22.511719 0.8125 0.5 22.824219 0.5 49.976562 C 0.5 77.128906 22.511719 99.140625 49.667969 99.140625 C 76.820312 99.140625 98.832031 77.128906 98.832031 49.976562 C 98.832031 22.824219 76.820312 0.8125 49.667969 0.8125 Z M 49.667969 0.8125 " clip-rule="nonzero"/></clipPath><clipPath id="12236870aa"><rect x="0" width="99" y="0" height="100"/></clipPath><clipPath id="c957cdbdf3"><path d="M 1007.222656 1438.8125 L 1105.554688 1438.8125 L 1105.554688 1537.140625 L 1007.222656 1537.140625 Z M 1007.222656 1438.8125 " clip-rule="nonzero"/></clipPath><clipPath id="9cea238e87"><path d="M 1056.390625 1438.8125 C 1029.234375 1438.8125 1007.222656 1460.824219 1007.222656 1487.976562 C 1007.222656 1515.128906 1029.234375 1537.140625 1056.390625 1537.140625 C 1083.542969 1537.140625 1105.554688 1515.128906 1105.554688 1487.976562 C 1105.554688 1460.824219 1083.542969 1438.8125 1056.390625 1438.8125 Z M 1056.390625 1438.8125 " clip-rule="nonzero"/></clipPath><clipPath id="b49cdcc615"><path d="M 0.222656 0.8125 L 98.554688 0.8125 L 98.554688 99.140625 L 0.222656 99.140625 Z M 0.222656 0.8125 " clip-rule="nonzero"/></clipPath><clipPath id="e2ef27784e"><path d="M 49.390625 0.8125 C 22.234375 0.8125 0.222656 22.824219 0.222656 49.976562 C 0.222656 77.128906 22.234375 99.140625 49.390625 99.140625 C 76.542969 99.140625 98.554688 77.128906 98.554688 49.976562 C 98.554688 22.824219 76.542969 0.8125 49.390625 0.8125 Z M 49.390625 0.8125 " clip-rule="nonzero"/></clipPath><clipPath id="f2b21a746a"><rect x="0" width="99" y="0" height="100"/></clipPath><clipPath id="25e9c2695b"><path d="M 797.894531 1438.8125 L 896.222656 1438.8125 L 896.222656 1537.140625 L 797.894531 1537.140625 Z M 797.894531 1438.8125 " clip-rule="nonzero"/></clipPath><clipPath id="0d7ed36a04"><path d="M 847.058594 1438.8125 C 819.90625 1438.8125 797.894531 1460.824219 797.894531 1487.976562 C 797.894531 1515.128906 819.90625 1537.140625 847.058594 1537.140625 C 874.210938 1537.140625 896.222656 1515.128906 896.222656 1487.976562 C 896.222656 1460.824219 874.210938 1438.8125 847.058594 1438.8125 Z M 847.058594 1438.8125 " clip-rule="nonzero"/></clipPath><clipPath id="37079795e7"><path d="M 0.894531 0.8125 L 99.222656 0.8125 L 99.222656 99.140625 L 0.894531 99.140625 Z M 0.894531 0.8125 " clip-rule="nonzero"/></clipPath><clipPath id="f47f61f144"><path d="M 50.058594 0.8125 C 22.90625 0.8125 0.894531 22.824219 0.894531 49.976562 C 0.894531 77.128906 22.90625 99.140625 50.058594 99.140625 C 77.210938 99.140625 99.222656 77.128906 99.222656 49.976562 C 99.222656 22.824219 77.210938 0.8125 50.058594 0.8125 Z M 50.058594 0.8125 " clip-rule="nonzero"/></clipPath><clipPath id="7cbd78dd61"><rect x="0" width="100" y="0" height="100"/></clipPath><clipPath id="bf32b0b4f1"><path d="M 588.5625 1438.8125 L 686.894531 1438.8125 L 686.894531 1537.140625 L 588.5625 1537.140625 Z M 588.5625 1438.8125 " clip-rule="nonzero"/></clipPath><clipPath id="b82989b428"><path d="M 637.730469 1438.8125 C 610.574219 1438.8125 588.5625 1460.824219 588.5625 1487.976562 C 588.5625 1515.128906 610.574219 1537.140625 637.730469 1537.140625 C 664.882812 1537.140625 686.894531 1515.128906 686.894531 1487.976562 C 686.894531 1460.824219 664.882812 1438.8125 637.730469 1438.8125 Z M 637.730469 1438.8125 " clip-rule="nonzero"/></clipPath><clipPath id="022a14725e"><path d="M 0.5625 0.8125 L 98.894531 0.8125 L 98.894531 99.140625 L 0.5625 99.140625 Z M 0.5625 0.8125 " clip-rule="nonzero"/></clipPath><clipPath id="feb591e7bd"><path d="M 49.730469 0.8125 C 22.574219 0.8125 0.5625 22.824219 0.5625 49.976562 C 0.5625 77.128906 22.574219 99.140625 49.730469 99.140625 C 76.882812 99.140625 98.894531 77.128906 98.894531 49.976562 C 98.894531 22.824219 76.882812 0.8125 49.730469 0.8125 Z M 49.730469 0.8125 " clip-rule="nonzero"/></clipPath><clipPath id="ebeed85b41"><rect x="0" width="99" y="0" height="100"/></clipPath></defs><g fill="#92e5bd" fill-opacity="1"><g transform="translate(319.718589, 1330.513394)"><g><path d="M 806.828125 -538.125 C 806.828125 -350.164062 776.03125 -211.035156 714.4375 -120.734375 C 652.84375 -30.429688 558 14.71875 429.90625 14.71875 C 305.75 14.71875 212.132812 -31.898438 149.0625 -125.140625 C 86 -218.390625 54.46875 -356.050781 54.46875 -538.125 C 54.46875 -728.050781 85.140625 -868.039062 146.484375 -958.09375 C 207.835938 -1048.15625 302.3125 -1093.1875 429.90625 -1093.1875 C 554.070312 -1093.1875 647.929688 -1046.070312 711.484375 -951.84375 C 775.046875 -857.613281 806.828125 -719.707031 806.828125 -538.125 Z M 280.46875 -538.125 C 280.46875 -406.113281 291.878906 -311.519531 314.703125 -254.34375 C 337.523438 -197.164062 375.925781 -168.578125 429.90625 -168.578125 C 482.914062 -168.578125 521.195312 -197.53125 544.75 -255.4375 C 568.3125 -313.351562 580.09375 -407.582031 580.09375 -538.125 C 580.09375 -670.144531 568.191406 -764.988281 544.390625 -822.65625 C 520.585938 -880.320312 482.425781 -909.15625 429.90625 -909.15625 C 376.414062 -909.15625 338.132812 -880.320312 315.0625 -822.65625 C 292 -764.988281 280.46875 -670.144531 280.46875 -538.125 Z M 280.46875 -538.125 "/></g></g></g><g clip-path="url(#e1c0fa0105)"><g clip-path="url(#a141e44887)"><g transform="matrix(1, 0, 0, 1, 379, 1438)"><g clip-path="url(#12236870aa)"><g clip-path="url(#3f25e5c304)"><g clip-path="url(#f34a47068f)"><path fill="#92e5bd" d="M 0.5 0.8125 L 98.832031 0.8125 L 98.832031 99.140625 L 0.5 99.140625 Z M 0.5 0.8125 " fill-opacity="1" fill-rule="nonzero"/></g></g></g></g></g></g><g clip-path="url(#c957cdbdf3)"><g clip-path="url(#9cea238e87)"><g transform="matrix(1, 0, 0, 1, 1007, 1438)"><g clip-path="url(#f2b21a746a)"><g clip-path="url(#b49cdcc615)"><g clip-path="url(#e2ef27784e)"><path fill="#92e5bd" d="M 0.222656 0.8125 L 98.554688 0.8125 L 98.554688 99.140625 L 0.222656 99.140625 Z M 0.222656 0.8125 " fill-opacity="1" fill-rule="nonzero"/></g></g></g></g></g></g><g clip-path="url(#25e9c2695b)"><g clip-path="url(#0d7ed36a04)"><g transform="matrix(1, 0, 0, 1, 797, 1438)"><g clip-path="url(#7cbd78dd61)"><g clip-path="url(#37079795e7)"><g clip-path="url(#f47f61f144)"><path fill="#92e5bd" d="M 0.894531 0.8125 L 99.222656 0.8125 L 99.222656 99.140625 L 0.894531 99.140625 Z M 0.894531 0.8125 " fill-opacity="1" fill-rule="nonzero"/></g></g></g></g></g></g><g clip-path="url(#bf32b0b4f1)"><g clip-path="url(#b82989b428)"><g transform="matrix(1, 0, 0, 1, 588, 1438)"><g clip-path="url(#ebeed85b41)"><g clip-path="url(#022a14725e)"><g clip-path="url(#feb591e7bd)"><path fill="#92e5bd" d="M 0.5625 0.8125 L 98.894531 0.8125 L 98.894531 99.140625 L 0.5625 99.140625 Z M 0.5625 0.8125 " fill-opacity="1" fill-rule="nonzero"/></g></g></g></g></g></g></svg>